<mxfile host="app.diagrams.net" modified="2023-11-10T10:41:38.700Z" agent="Mozilla/5.0 (Windows NT 10.0; Win64; x64) AppleWebKit/537.36 (KHTML, like Gecko) Chrome/117.0.0.0 Safari/537.36" etag="qgSRTUTygbzx7j_SYquZ" version="22.1.0" type="github">
  <diagram name="Seite-1" id="5j-T2ay0NRmo94tfC0bt">
    <mxGraphModel dx="1491" dy="2129" grid="1" gridSize="10" guides="1" tooltips="1" connect="1" arrows="1" fold="1" page="1" pageScale="1" pageWidth="827" pageHeight="1169" math="0" shadow="0">
      <root>
        <mxCell id="0" />
        <mxCell id="1" parent="0" />
        <mxCell id="Hre0k5CdGtxkCVLCbG9s-229" value="" style="rounded=0;whiteSpace=wrap;html=1;strokeColor=none;" vertex="1" parent="1">
          <mxGeometry x="112" y="220" width="1378" height="750" as="geometry" />
        </mxCell>
        <mxCell id="Hre0k5CdGtxkCVLCbG9s-151" value="" style="rounded=0;whiteSpace=wrap;html=1;" vertex="1" parent="1">
          <mxGeometry x="1040" y="620" width="448" height="350" as="geometry" />
        </mxCell>
        <mxCell id="Hre0k5CdGtxkCVLCbG9s-150" value="" style="rounded=0;whiteSpace=wrap;html=1;" vertex="1" parent="1">
          <mxGeometry x="112" y="620" width="448" height="350" as="geometry" />
        </mxCell>
        <mxCell id="Hre0k5CdGtxkCVLCbG9s-1" value="" style="shape=image;verticalLabelPosition=bottom;labelBackgroundColor=default;verticalAlign=top;aspect=fixed;imageAspect=0;image=data:image/png,iVBORw0KGgoAAAANSUhEUgAAAnkAAAIICAIAAACdFW+SAAAAAXNSR0IArs4c6QAAAARnQU1BAACxjwv8YQUAAAAJcEhZcwAAFiUAABYlAUlSJPAAADeVSURBVHhe7d1/cBznfd/x2937AYA8HMAfolI3FEVQNGklbSIiqOhJHVPMqJbtaUWJch2b7kz9T1rF5qSiOqllBBAhUPI0pOJhHM+kk06nNmurDE16msRy3NJ0HU0pwyDquJHJKAQIM3FiSRRxy6NA3AK72+/hWZ1A4HBYAPccdg/v19zAu8+uJJo87mef3ef5Pobv+wkAAKCNGfwvAADQg6wFAEAvshYAAL3IWgAA9CJrAQDQi6wFAEAvshYAAL3IWgAA9CJrAQDQi6wFAEAvshYAAL3IWgAA9CJrAQDQi6wFAEAv1tQDEF1ewhsaGbz82quyvW3T9vu2dpr0EBBDZC2AKDp38Wzfqe5UNpnOpa2MJS1u0XVsZ8IuHv7Ic3t27lWnAbFA1gKIHAna3pNPmSlj473rg6a3OQVnbPhG32PPvf89DwRNQOSRtQCiJT+e33fsId/yN+xoN6wKT4zfeOVNwzXOHHqxraUtaAKijTcfAKKl/3SP67m5zdmKQSvkkJwgpwX7QOSRtQAixEt4gyMDTblMOpsOmuaQQ5lc+sLooJwcNAHRRtYCiJChkUHP99K5eYNWyeQyrjslJwf7QLSRtQAiRE3vUQOPq7DSpWuXOhmIPrIWAAC9yFoAEbJt03b56RZdtTsf1ym9qVUnA9FH1gKIkFJlKMN0bCfYn0fRLlpWUk4O9oFoI2sBRIiZMDu3dk3YRacwb9zKoaLt7NpCvUbEBrUsAEQLtSzQeLgrBBAtkqA9+/u9Sf/apbGgaQbp1Mqh3kePELSIEfq1AKJIrT2QzFqZXEbN8HEdr2gXi7bT99jnKIaMeCFrAURU6WHy8x903algP5GwrOSuLZ1HDxwP9oGYIGsBANCL97UAAOhF1gIAoBdZCwCAXmQtAAB6kbUAAOhF1gIAoBdZCwCAXmQtAAB6kbUAAOhF1gIAoBdZCwCAXmQtAAB6kbUAAOhF1gIAoBdZCwCAXmQtAAB6kbUAAOhF1gIAoBdZCwCAXmQtAAB6kbUAAOhF1gIAoBdZCwCAXmQtAAB6kbUAAOhF1gIAoBdZCwCAXmQtAAB6kbUAAOhF1gIAoBdZCwCAXmQtAAB6kbUAAOhF1gIAoBdZCwCAXmQtAAB6kbUAAOhF1gIAoBdZCwCAXmQtAAB6kbUAAOhF1gIAoBdZCwCAXmQtAAB6kbUAAOhF1gIAoBdZCwCAXmQtAAB6kbUAAOhF1gIAoBdZCwCAXmQtAAB6kbUAAOhF1gIAoBdZCwCAXmQtAAB6kbUAAOhl+L4fbAJAPHkJb2hk8PJrr27btP2+rZ0mvQhEDFkLIK7OXTzbd6rb9dymXCadS1sZyy26ju1M2EXLtHr29+/ZuTc4FVhRZC2AWJKg7T35lJkycpuz6Ww6aJ3mFBz7asGb9Psee+7973kgaAVWDlkLIH7y4/l9xx7yLX/DjnbDqvDE2He9a5fGDNc4c+jFtpa2oBVYIbzVABA//ad7XM+VHm3FoBXSLkflHDkzaAJWDlkLIGa8hDc4MlB6R3v7o+NZ5Ggml74wOhjsAyuHrAUQM0Mjg57vpXPVglbJ5DKuOxXsACuHrAUQM5dfe1V+WhlL7VZhpbnEIRL4IgIAoBdZCyBmtm3aLj/doqt2q3AdL9gCVhRZCyBmSpWhDNOxnWB/fkW7aFnJYAdYOWQtgJgxE2bn1q4Ju+gUqsWtHC3azq4tncE+sHKoZQEgfqhlgXihXwsgfiQ+e/b3e5O+BOrc3q20SLsc7X30CEGLKKBfCyCuymsPZHLpTC5jpU3X8Yp2sWg7lmlJ0FIMGRFB1gKIsfx4vv90z4XRwXLNCstK7trS2f1IHz1aRAdZCwCAXryvBQBAL7IWAAC9yFoAAPTifS2wAryENzQyqGrob9u0vVQIiRtfoHGRtUC95cev73v+wzPXelNDZ48eOB7sA2gs3EoDdXXu4tl9xz6UWmu1bs6239MmH9mQ3YHhl+VQcBKAxkK/FqgfSdPek0+ZKWPjveuDprc5BWds+EbfY89RfgFoPGQtUCcLlvB945U3qd8LNCSeIQN10n+6x/Xc3OZsxaAVckhOkNOCfQCNgqwF6sFLeIMjA025TDqbDprmkEOZXPrC6KCcHDQBaAhkLVAPQyODnu+lc/MGrZLJZVx3Sk4O9gE0BLIWqAc1ldbKWGp3Pla69FdSnQygYZC1AADoRdYC9bBt03b56RZdtTsf1ym9qVUnA2gYZC1QD51bu7o67r9xteAUnKBpDjkkJ8hpcnLQBKAhML8WqBPm1wKrFv1aoE4kQXv293uT/rVLY0HTDNKplUO9jx4haIHGQ78WqKtzF8/2nepOZq1MLqNGHbuOV7SLRdvpe+xzFGgEGhJZC9Rb6WHy8x9knR9g9SBrgRXA+rXAqkLWAgCgF7fSAADoRdYCAKAXWQsAgF5kLQAAejE2CqixmWOMP7L7YwwwBkDWAjWTH7/+zOneodEL5bmzauJs9yN9VIMCVjOyFqgNVRDK9dymXCadS6ulam+9fmvCLlqm1bO/f8/OvepMAKsNWQvUxvsO/xMzZeQ2Z9PZdNA0zSk49tWCN+n3PfYcJRiB1YmsBWrgyRMH/zpxcVbKziSJOzZsd3XcTyFGYBVi1AawXF7CGxwZqBK0Qo5mcukLo4NyctAEYNUga4HlGhoZ9PyFEzSTy7julJwc7ANYNchaYLnU9J4FqRX0Qp4MoJGQtQAA6EXWAsu1bdP2YKsq1yk9Zw55MoBGQtYCy1VafdZY+K9S0S5aVlJODvYBrBpkLbBcZsLs3NrlFJxgvxI5WrSdXVtYEx5YjZhfC9RAfjz/8Oc/sGFHu2FViFLf9a5dGjNc48yhFynWCKxC3GIDNSAJ6k36Eqhze7fSIu1ytPfRIwQtsDrRrwVqo1wPOZNLZ3IZNcNn/I1bRduxTEuClgKNwKpF1gI1kx/P95/uuTA6yDo/AGYia4EaY/1aALOQtQAA6MUdNwAAepG1AADoRdYCAKAXWQsAgF5kLQAAepG1AADoRdYCAKAXWQsAgF5kLQAAepG1AADoRdYCAKAXWQsAgF5kLQAAepG1AADoRdYCAKAXWQsAgF5kLQAAepG1AADoRdYCAKAXWQsAgF5kLQAAepG1AADoRdYCAKAXWQsAgF5kLQAAepG1AADoRdYCAKAXWQsAgF5kLQAAepG1AADoRdYCAKCX4ft+sAlglcmPX3/mdO/Q6AXXnQqaEgnLSp554httLW3BPoBlI2uB1WvPM7tdz23KZdK5tJWxpMUtuo7tTBamevb379m5V50GYJl4hgysUucunvUtv70jl7u7tXldU3pNSj6yIbvS3nvyqe/86NvBqQCWh34tsBrlx/P7jj20/t42w6pww+273rVLY4ZrnDn0Ig+TgeWjXwusRv2ne1zPrRi0Qtpzm7NygpwWNAFYBrIWWHW8hDc4MtCUywT7laSz6UwufWF0UE4OmgAsFVkLrDpDI4Oe76Vz6WB/HplcxnWn5ORgH8BSkbXAqnP5tVflpxp4XIWVLl0f1MkAloOsBQBAL7IWWHW2bdouP92iq3bn4zqlN7XqZADLQdYiHtRwnhfOn5CPbDBgZznu29ppGqZjO8H+PIp20bKScnKwD2CpmF+LGMiPX9/3/Idn1RHctaWz+5E+Zn8uzZMnDg4Mv7zpFzYG+3M4BWds2O7quP/ogeNBE4ClImsRdecunu071Z3KJmfVEZyQXpdpnfvt8+o0LAq1LIB64hkyIk2CtvfkU77lz60j2N6Rk3bqCC6NJGjP/n4JVOm/Bk0zSLs36fc+eoSgBWqCfi2iS/W9JFA37Gifr/v15it5+l5LptYeyOTSmVxGzfBxHa9oF6cKrgTt+9/zgDoNwDKRtYgoL+E90PfedGtKurBBUyX5K/bUTe9s90smD2mWSn6rh0YG1TzabZu2l0ZO8ZsJ1BRZi4gaHBl44sufat2cbV7XFDRVcuv6xI2rhec/8YXOrV1BEwBEDHeviChqGwFoGGQtAAB6kbWIKGobAWgYZC0iitpGABoGWYuIMhNm59auCbtYcQJoWdF2dm1h3CyASOMKhejqfqTPMi37asF3K1c/lnY5QU4L9gEgkshaRJeqbeRN+tcujQVNM0h/V9qpbQQg+phfi6hT9ZCTWWtWbaOi7VAPGUAskLWIgVKxxuc/yDo/AGKKrEU8UEcQQHyRtQAA6EXPAAAAvchaAAD0ImsBANCLrAUAQC+yFgAAvchaAAD0ImsBANCLrAUAQC9qWQAaUe4KgCBrAV3y49f3Pf9hyjgDIGsBLdTyRKlsMp1LWxlLWtyi69jOhF1keSJgteFxFlB7ErS9J5/yLT93d2vzuqb0mpR8ZEN22zty0v6dH307OBXAKkC/Fqix0gqAxx6SQN2wo92wKtzO+q735iv5M4de5EkysErQrwVqrP90j+u5uc3ZikErpF1OkNOC/cXzEt7gyMAL50/IT9kOWgFEFf1aoJYk+R7oe2+6NZW7uzVoqiR/xZ666Z3tfmmxw5Lz49efOd07NHqhPOSK8VZA9NGvBWppaGTQ8710Lh3szyOTy0hYysnBfjjnLp7dd+xD3x/+Xmqt1bo5235Pm/yU7YHhl/cde0iOBufVmtxAfP/K937nT549+qefGxh5mZ40sFj0a+vn0IlPz+yOCOmRnHniG3RHGskL50988VvHJQXTa1JBUyXOTWfssv34gwc/uvtA0FT5G2Lt2vJLRw8cD/MO+NqlMcM1ajjCWcL78KnPep7XlMuo0dTlodQJwzANo3f/kT079wZnA5gf/do6kcvWzO5IuUeitTuC+tu2abv8lExSu/NxnVLXUJ2szPMNSUqf9U9+8Mdh3gHLUTkn2F82+fX0nnwqYSXaO3Ll0dTlodRW0vB8X06YO6Cad8nAXPRr60Fdtto7WtPZ2Y8W33jlTW/S73vsufe/54GgCXG2tPe1Vb4hTsEZG7lh+IlMLl393ynkX/tnv/nd5ZemCjWU+tKYN+WbhlnuSfMuGZgP/Vrt5LLVd6rbTBlzL6NCrmVy6PDXPiunBU2IM8m5zq1dE3ZRMjJoqqRoOxJCKhSrf0OSzUmJNj/hL/gOWGRymcW+A64oTDdaut1yp17uScvtwoq8SwZigazVrnzZCvZvV370t5wZIIgU6cZZpmVfLUgQBU23k3Y5QU5Tu1W+IZLZ1165nsxI3CZU8anqrLSpai8v0+DIQOkdbaXsL5Oj0tVOGKWuvOqXSz+44gNnaa/4tBlYPchavdS7q+qXLXXNujA6yMutxtDW0tazv9+b9K9dGguaZpD+rrT3PnpEPVat8g2RoLVHC2bSaF7fFDTVS5ih1EK60Qk/8d1L31H98g072uf+v5AWHt4AZK1eWmeAILL27Nx7+CPPGq6Rv2Lfuj7h3HTkIxuyOzZsS3v59fx83xBvyrsxWrCSxvod7cmmUr92wfFWwnW8meOtliNkN1p+/qf/9cUFHzjz8AarHFmrl3qgt+BlS12zavL0DxEhcXvm0ItTN70bVwtjl235yIbsdnXcL+3BSfN/Q/JXbvi+n8mlJ8fddLY0fcixq70AVop28b6tncFOvfzt9ashHzjz8AarFlkbe3LxeuH8iepTLNSDSnUaF7u6aWtpO9v90vOf+MLjDx6Uj2zI7tEDx6sMypXu7Njl/Gt/8cbkW5OyO35tYmw4nx+2U2vTC463kqNF21n+IGQlZDe69D9+IuQDZx7eYNVizo9eknBPfPlTrZuzzeuqvXK7dX1COj1yLe7c2hU0hXB9/NpvfeWJV//+Vd8L4nPuFAumYUTczG+IfA0Kf3NT/kqWa0fICZJ58t0wDEO2zelHyhUf1da2lsX7DnfJryHMFKPiDUeytn2h2h2iYvkOYJWgX6vXfVs7TcNc8Olf0S5KBIZ/+icJ+sk/+PjDRz/4Vz+5FAStmUg1Ja2W26ZYzJ2GIR+mYUSK/KEbieAbcuNvbhpJo70j17yh2Xf9qfGphJeQDJYWSVm5KXan/Dcvjc3t3arxVt6k3/vokaBp2UJ2oyVoASyIrNUrzGxLdc0qz7ZckGTkw8c+ePmnf93UmilPZGzKZiYnpiZvOmvubClPsZg7DUM+TMOIFPlD/6WO0jfkxt+9JYGabLLyV26MDecLP7kpH9l4/YfXks1J6c5ayVLf1pvyx4bt8pCrmeOtalsRRXrS0p+uMm2p3NsW4R8412roFhAvPEPWrlyCZ+O964OmGcqP/kKuZqomMpopI7c5O2s0imS2XP6k65P72Wzh728m5OpnlWplVH/kyCqqK06+If/i6AdK9SoM+TH7AbJ0eYs3nNYtWdM0JFPTa1OScM5bk74X/M1VNZNr+1LgfYe7mjc237o2IQEvd3LzfdOa1zfdunbLNMwF62QJuSdY2tJGQAPgS6+dXAHVbMuKXdvyo7+QF8rqExlV7+fG3xSy/3CN53lMw4gF+aO/e9PdfsKXfu2shxCyIbvSbo9KF7NUpnFyfKqtI3fHP9rQ3tEmnWDTsv5n959XH2+1BBKfvuPltmTn60ZLe9tdrd6ka1nJMHWyFvvwBmgwfO/rQc22nHnNKl+2Fvvob8GJjNILkb7RxLWi7M7N45nkKNMwokB+/0ffuJIwSuOeKv6RqVso+8c3UtmUdGedQmmIcjqbmppwO7f8UjJRmn1bWyo+pSe94d51mWxa/ovSkVXTlmRbWqTdsIJKk2HqZMnRmaWygNWGZ8h1JVfVoZFBNaVy26btpZFTi7ndGRwZePp/f0b6OsH+PCTF5ZooG5t+YaNqmQ9DQ1eceikgebTguF+5MytK39FLZN+1Vnq0kl5PP/ysviUrqr+tkP/6rDUz5Py+U91yLyg3cJlcxkqbruMV7aLksaRs76NH9P1Sgegja+PkhfMnvnrlSyEnV8gGWRtx6l2+J38LXa813MQw2UitTU3enJQAq+FStRUtNj7l/07/6Z4Lo4NMMANmIWvjpOZZqy7fi53Xi1p58sTBgeGXJckkvRacohr8sU6P/O3aen99AmwJ8Vl+eLOEJzdAoyJr46Tmz5DzDA1dOZJJaqVb6acWfnIzbNZK0N5z/9GPHVeN9bHi8Tnr5Qu3hogdsjZO5Irzgc//SpjJFerFXntHrsrwKKfgjA3bXR33Hz1Q1ws3lHLFKCtljQ3nQz5DtizrzBOraJrW3MJnQr60PJdGvNCbiRPpT4ScXGH4RmKhWgQMDV1ZqpdmZayQSwsU7WLCSPz2I8+sqoyZW/hMNih8htgha2NG0rH65ArJV8Mo1fMzwpX0o3MQBZlsaWmBYKcSdQt1zx3vfuA9vxo0rQKSpnMLn8kGhc8QO2RtzJQXIa+YoJKskq9qN3dX69xaBPKRbWmpeUk/LJaqVqiqG7belS3dIS30EOLYv/q9oGkVyI/n+051s/48GgNZGzPlRchnJqj8VAlaCtrpF/Btd7Vm2tJNuYyqRVCcLqo3Nr2KankJVYJ2ZZUGGb29LoWZNFu3ZCs+hBCr8yFE/+ke13MpfIbGwNioWFIzMQZHv++5b9d8N6T7kzBMI70mJZ0kuXYH7dMkiSdvur++93EjYXxk98ciO+p49UwXUUN+BocH5OaoPITt9b+4Jn8fy5NZpUXNZ3VuTB3er7FsRQSVB2kvWN+DgfSIBbI2xlQyPf/if7w29dPUmnSyKalG2cwiXaXojzdebevs7nlmt/TJ0tnM5E2nvCqtN+Xd+HFh5roCJUbixG+c2rx+c7C7Omhd+BmoP24GY0zu5eUS88V//YfOW1PN6zIVgzYW443PzVlnV3428Dq75SE/7R2trVuy5SFsZtIsryuQfdfalg1NZspM+MZqC1pRHqStduejev/qZCDKyNrYk25fldFS0X/VJ8HTO2edXfkp2w053HTWkJ9SGeS3h7CVx6+5k678HL82oYawqX+wIXkJT7qwL5w/IT9lO2gFGg7PkBuBxNWsurXS6Dql+T8V69ZGhwSPWtx3wXV2ddf+rRtVl3FWSS/19LhUgaTMSNx3V+fTjz3bqOOh5r41ME1z+53v/tzHf3ddyzqeIaPB0K9tBHt27j1z6MWujvunbpbyVY03lo3ojzdWY03DrLMb7EeV9Mmkc7Zg/0x146QvG+y/TT09Vo+O5ZNaW3odkEwlGzVoK741SGdTl/7u4sNHH/rXf/DxrXduKw/SrqJoFy0red/WzmAfiCr6tVgxIfsuQrovT//KcxHsu5SfKEh8Nt/RLC1u0ZWEmF781fzVn/9nTz3cO3OIrITxF791PHzp48j22K5eG3n8v/z6jVt2onz9MBJtzW1f+OQfLvh2ec8zu6s/yXjz0pg3VboyTS+gu8ADD7mbbNQ7EjQS+rVYMSHHvwgrbUZw/MusN83lqkbqTXPCSnzrh9/c2//LT544eO7S2d/5k2d/66tPfOfi4l48R3PUz+/9z88f+OKv3Ri3m1oz5V6pbOfH8wd+/zE5Gpw3jwWfZMi/TZLWmF7RKL4DEYCZyFpgKdQQJzNlVClsZCUNq6U0mloi+Y8vfP38qy/96G/+Uo6qWlFVuE50RwlJlP7R+a+aSaPiWDZpl6O//615Z5d5Ca8pl5n7OzaTHM3k0r7he543q2yLfGRDWtSoMeqxIC7IWqyYmUUKq5PsUSdHR5g3zdI/M6ZLVUjoJgxjzZ1rpUUOhVpmYPrfemf7P5huiIqrb15VQVvlDkOO/veX/5ucGbTebmhkMJ2rFrRKJpeRWE6tTX3t0J/GcSACMAvva7FipIsTpjaQkG7Nn/3md6NTGyj8r/z1H1674x9tKL+D3HDvOjXeuMrSws507REzaXqu17am7Uv/9mR0HpP+8995UDr0cvdQpWOqfv3ya/4f//5bQdMML5w/8dUrX6r+ulqoN9aZ9sxzHz7WubVLfsNZvxaxRr8WK0bV4gi5SmCkivDJdd/zvTD9M9/zncJk+R2kBG3rXVnp40r6BmfcTtql32YYhjflmZaZfyu/7/mHgmMRIL+ekE+A87dqsCSAZRkqX9VX5aO7D8iHoEUckbVYSd2P9C24SqCqexXsR4MKgDCjusTURGn+qEog563JqVtuwp93rUNpd6d8w5S0NVrubE74Cd/0I1TKw0iEfQI8z/My6ZWGfGsgP0P+DgPRR9ZiJbW1tFVfJbA83DRoijNJIOnmlt7FSpbMWetQDfnxpnzTNDzPz93VmmpKypktG5oitXJcyHHjwdYc923tXPB1tZDfpdINh2VG7T09sDRkLVZY9VUCozncNPyoLpGcjkwR1POaLPXYmjc1GwmjeOOdtQ5lw0yavvB8tSTi9D+UMEzTbaCV48yEGfKtQXpNShKXOhVoDGQtVt7culfyM8rr7M5cera60iqHt68JYaVL/cJU2trwc+sya9NygmoXkrKZbLq05PB00KrnqBLVmVz6wuigl6j8mL3Owj8Bns+Cbw3UG+umDZmovacHlozvMSKhraXt6IHjZ7tfev4TX3j8wYPyU7alJZqVCsKP6po54FYlUKa1lKOS07NW9ZGPbEuLtE+fHjxHlajO5DKuOzU0MqjaV5K/8IQlUXpO/s4txGzV3xqoN9atP5st/O1bUXtPDywZWYsIKQ83lZ8R79CEGdUl/bPSqOO3vZOd2fTMnJaWlo3N8lG7ihxVz1FlOzorx7WtaQv5BLited6bJPXWIOEmKr418Kb8NZtaCn9/s2He0wOCrAWWYsFRXap/Vu6kzsxOCWDDMCSJq+S0pLicMzOqo+ALn/zDhGEsOG5czimdOT+J268f+uY9d767/MZafhYLTqopmVybeuunb1EWCg2GrAWWSPXP/Kmgf1YeTlzun7XdFVS6UH3ccnaWxkAlSkOR55v5Uxp9PVUaiqyiWj18jsKI3M3rNz+2+9fk1zbfHYb6lf/L+z++4AoEcrPyn3/9y19/8ps73rXTMKcvRF5icmLKG4/ue3pgyagbBSydKiBlWAnPK40fVo2lB8VrUhKrKiklgSRoJVlnji5+/S/fTLjTf/d8v7zqsGRq0S5K91dSWYK2fLKE99RN72z3SxF5rq5KIlf8lUuPVoL2Nx48GJwajvw2njz/FdmQ+4nSuDP6AGg4ZC2wdLPWyFNLvjtvTZZzN2EkTMtsubNZTZadmaZN65ua2jOe590YKSRK8Wy1bFwza9CykD7xm6/ko7ly3FRi6o/+z1d/8OP/+wt3/eJj7/21ZCKY3QRgFrIWWLr51qN1CpOqXJQkq0TvbUWUDMnPxMafW19+lTthF+3RgpU0Nty7XrWUSZ/Yvlp4+uFneaAKxBrPaoClm6+oRXlocfu2tk3/eGPLphZp3P6undKdlYi94+ffCVrRlMvktmS9Kb88KHdWNQ+CFog7shZYupBFLdyJKctKtrXkfN+vuAyfxO2Ge9cVp9/slstIlat5BCcBiC2eIQPL8uSJgwPDL1dZZs6ZXmNOUnNwZGDBZfiuX85Pjbv/5ld/455N72aUENAw+JsMLEu5qEWwfzs131RO+PCuh8Msw9e8rsn3PAna6FfzABAef5mBZSkXtZg731SU5ptO1z/6af7vZHfBRXKiUyIKQA2RtcByqaIWqqLFrMFN1D8CIMhaoAYkbmeuU1Qe3FSufxRyGb7olIgCUEOMjUIMxKWukPw6h0YG1RPgWb9UVWFqwbFRUSsRBaAmyFpEWn78+jOne4dGL7huqTSEsKzkri2d3Y/0RXO5vSrCj1g+euB40ASgIZC1iK5zF8/2nep2Pbcpl2m+o7TknFt0HduZsIuWafXs79+zc686Mxby4/l9xx7yLX/Djva5U2zFG6+8abhGNMsxAlgO6+mnnw42gSiRoO09+ZSRTLTd3bpmU4uVtuSTak42tWfSa1ITheK5/3f27js6tmy8O/gHIq8p1XTXHXfLL/vW2MSaO0qVpGaSTu2ta8XD+5/d8Q92Bk0rx0t4F0a+/91L5/7yb384MTlxZ/vPGFUWfwewEPq1iKIFu4C+6127NCa9wHO/fT5oignVWU9mLbVCjrSUFyToe+xzURixnB+/vu/5D5cf2ov4PrcHIoKsRRQt+GpTqLeb3+0dCPbjo3Qn8fwH54ZZFF7TqluBVDaZzqXVbOCZz+1jd2cDRARZi8gZHBl44sufat2cbV7XFDTN49b1iad/5bnOrV3BPpYhzLOEyK7uB0Qc8woQOWrOzIIlloSVNimxVCv9p3tcz624NIIi7XKCnBbsAwiNrAVQGgw1ODLQlMtUeWgvMrn0hdFBOTnYBxAOWYvICVliSbiOR4mlmhgaGQyzNEIml3HdKTk52AcQDlmLyAm5KKwo2kU5OdjBMoR8bs/SCMDSkLWIHDNhdm7tmrCLFVfOKZOjRduhliGA6OM6hSgqLwrru5VfDap1YU3T5N1hTYR8bs/SCMDSkLWIovKisNcujc3t3UpLaV3YKd/zvL39v/zkiYP58XxwDEsS8rl90S5aVpLn9sBikbWIKLUorOEaal3YmYvCSos/5a/ZtKb9nrbUWmtg+OV9xx46d/Fs8E9i8UI+ty/azq4t0V1nCYgsalkg0qTD2n+658Lo4DtVlsxEZk269a6smQyu+BIP9tWCdIJZlX05qGUB6EPWIga8hLenb3fCNHJ3ZTOtFeallMsjkwTLodZ7MFPGxnvXB01vUzc0Tz/8LHczwBLwLAgxYCZMuSls21I5aIX0w3Kbs1Q1Wqbyc/v8FfvW9YlZz+2lnaAFloasRQxIv3bBkkZylKpGyydxe+bQi1M3vRtXC2OXbfnIhux2ddwv7cFJABaJZ8iIgcGRgaf/92fCLEUgwfD8J77AagTLJPcrQyODqmbFtk3bS6OUuS/HalWTvw5kLWLghfMnvnrlS+k1qWB/Hs5NR/phjz948KO7DwRNALBU+fHrz5zuHRq9MGsFzDNPfGOx40K4V0UMyL1kyPLI8pNKCwCW79zFsw9//oOXE5c2/Hz7pl/YWP7I7sOf/8D7Dv+T7/zo28GpIZC1iIH7tnaGLI9MpQUAy5cfz/ed6t6wo73iMBFpN1PG4a99NnwVHbIWMWAmzJDlkam0AGD51HLOVdZyXuzEB65KiIcw5ZHlnO5H+oImAFgS7+3lnIP9ShY78YGsRTwsXB550u999AiFLAAsk47lnMlaxMOs8sjlSgvlMgsUaARQEzqWcyZrERuqzEJXx/0zKy2UyywQtAAii/m1iJ+ZU8s/svtjDIYCUEODIwNPfPlTrZuz1evnLKp4DlkLAMA75G7+gb73pltTubtbg6ZK8ldKz9XOdr8U5nafDgEAAO+Q7FTLOQf7lSx2kiFZCwDAbbof6bNMq4aTDMlaAABu09bS1rO/v+IkQ7GESYa8rwUAoII9z+x2PTeTS2dyGTXDx3W8ol2cKrgStIua+0DWAgBQQX4833+658Lo4PLX+SFrgfopz1ZiUVhgVSFrgXqYuxCm3B3v2tLZ/UgfdSWBhkfWAtqdu3i271S367lNuUw6l7Yyllt0HduZsIuWafXs79+zc29wKoBGRNYCeknQ9p58ykwZuc3ZWWthOgXHvlrwJn2KOQONjawFNMqP5/cde8i3/A072iuuhem73rVLY4ZrnDn0Ig+TgUbF0AxAI7XitPRoa7joNIDYIWsBjdSK07MeHc9SXnQ62AfQcMhaQKMwK04Lteh0sAOg4ZC1gF4LrjgtVEkaAI2Kv+EAAOhF1gJ6uUU32Jqf61ReTgRAYyBrAY1Mw3TsCuuEzFK0i5aVDHYANByyFtBIrThdcVmusvKi08E+gIZDLQtAI2pZABD0awGNJD579vd7k37FRaelZQmLTgOIHfq1QD3MXQiTdX6A1YOsBeqH9WuB1YmsBQBAL26rAQDQi6wFAEAvshYAAL3IWgAA9GJsFKKoPF5XthmyCyDuyFpEzqETnx4avTBzPVfLSp554hvMQwUQU/QVEC3nLp79/vD3Umut1s3Z9nva5CMbsrvv2ENyKDgJAGKFfi0iRNK09+RT7R2t6Ww6aHrbG6+86U36fY899/73PBA0AUBMkLWIinKZ/o33rg+aZlA1+hNu4uuHvsnDZADxwjNkREX/6R7Xc3Obs8H+7QzLlEOe5x360qeDJgCICbIWkeAlvMGRgaZcZu7T4zI5lMml//r1v7o+fj1oAoA4IGsRCUMjg57vpXPzBq2SyWUSfuI/fOXfBfsAEAdkLSJBTaW1MpbanY+VLn1jL/3konSCVQsARF9sslY9Y3zh/An5yHbQikaxbdN2+ekWXbU7H9cJ/uhVNgNALMRgHHJ+/Pozp3tnFjdgke3GI/dPe/rem2lN5e5uDZoqyV+xiwVHzn78wYMf3X0gaAWAaIt6v/bcxbP7jn1oVnED2R4YfpniBo3ETJjv/pl3T9hFR6J0HnKoaDupdFK2VT8YAGIh0lmrKhv4lt/ekZPuTvO6pvSalHxkW1qkXY5+50ffDs5GzH3u47+bMIwbVwvB/u1815NDhmEkUqZlJe/b2hkcAIDIi3TW9p3qNlPGhh3tc+eBSIu0y9HDX/tsfjwftCLO1rWs69i0zZ3yK3Zt37w0JodaNrVMFpxdW1iKAECcRPqCpSobGFblX6QqbiDn9J/uCZoQc7/7id83DWNs2M5fsW9dn3BuOvKRDdn1pvzcz2ZvvXnLMq3uR/qCfwAA4iC6WeslvOqVDYQqbnBhdJCRyY2hraWtd/8RwzCKBefG1cLYZVs+suEUJlu3rC38/U1v0u999Ahj4gDES3SzdmhkcMHKBiKTy7julJwc7CPm9uzcaxqm3Dul1qYy7ZmWDU3Zd63J/sO19pWC4RqsPQAgjqKbtZdfe3XBygZCFTdgtmUjOXPoxa6O+71bfnGsOH5tovCTt6RrKy3STtACiKPozq994fyJr175UnpNKtifh3PTGbtsM9uy8XgJb2hkUN1Fbdu0vXNrl2oHgNiJbr9WLq8LVhESqpAQsy0bj5kwJV/lFko+BC2AWItu1t63tdOx5y1rUFa0i8y2bDzSqS2X5JQNxr4BiLVI12h83+Gu9o5claHITsEZG7a7Ou4/euB40IT4O3Ti0zNLcgq5nTrzxDcYfgwgpqLbrxWWadlXC75buU8j7XKU2ZYN5tzFs7NKcsqG7FKSE0B8RX3tAbm89p3qdj03k0tnchk16nj8jVtF25GU7X30CANTG0Z+PC+B6lv+xnvXB00zyK3VtUtjhmucOfQiHVwA8RKLdX7y/ad7LowOss5PY3vyxMGB4ZervDXglQGAmIpB1iozZ4B8ZPfHKIfbYOTP94G+96ZDrKk3ddM72/0SXwAAMRKbC9bMGSBcZxuP3Eh5vrdgpTDKhAGII0ILkaCeWCxYKYwyYQDiiKwFAEAvshaRoCp/LVgpjDJhAOKIrEUk3Le10zTMBSuFUSYMQByRtYgENfZtwi46hXnjVg4VbWfXlk4GxwGIl9jM+UHDo5YFgEZF/wBRIQnas7/fm/Qrdm0laOVQ76NHCFoAsUO/FtFy7uLZ3pOfmVmS03W8ol2cKriU5AQQU2QtIufJEwdnluQUrPMDINbIWkTRzJKc2zZtL41S5n0HgNgia7EqlMOb5AZQf2QtGll5TcamXCadS1sZyy26ju1M2EXLtHr29+/ZuTc4FQC0IWvRsKaHWT1lpozc5uysdfqcgmNfLXiTft9jzzHeCoBuZC0aU3m27oYd7YZV4YkxE3YB1A1vrdCY+k/3uJ4rPdqKQSukXY7KOXJm0AQAepC1aEBewhscGSi9o7390fEscjSTS18YZTVcAHqRtWhAIVeeF2rx+WAHAPQga9GAQq48L1RpKgDQigsNAAB6kbVoQCFXnhdq8XkA0IqsRQMKufK8UIvPBzsAoAdZiwYUZuV5UV58PtgHAD2oZYG6mrmowEd2f0xfXWJqWQCIDrIWdZIfv/7M6d6h0QvlOTaWlZQ+ZfcjfZqijhqNACKCrEU9zF0DQBpvvX5L9xoA5f9uefF5tfJ80Xbkv8vi8wDqg6yFdivbv8yP5/tP98xcfF53fxoAZiFrod37Dne1d+SqlEuUxB0btrs67j964HjQBAANhHHI0MtLeOHrEsvJQRMANBCyFnoNjQyGr0ssJwf7ANBAyFrodfm1V8PXJVZzgQCgwZC1AADoRdaixtTasS+cPyEf2ei4857wdYlVHWMAaDCMQ0YtHTrx6ZnVKoSVTKbWWLm7W4P9eeSv2FM3vbPdL+mrJAUAK4XrGmrm3MWz3x/+Xmqt1bo5235Pm3xkQ4I2fF1ighZAQ6Jfi9pQBSvaO1rnTu95/S+uGUmDusQAVi26EaiB/Hi+71S3mTIqzqPNbl7rTfkSqHN7t9Ii7d6k3/voEYIWQKOiX4saePLEwYHhl6sUh7r507feeu1WwvfLdYmlcfyNW9QlBrAakLVYLi/hPdD33nRrqvoAqOvD9lRh0rQs6hIDWG3IWizX4MjAE1/+VOvmbPO6pqCpklvXJ25cLRz9xHEzYdZh/VqgTL6i6iu3bdP2+7YyBA8rgKzFcr1w/sQXv3W8/Z629JpU0DSDU5icmphKNiXluzZ22X78wYMf3X0gOAZoplZN/v7w94J9nqZghXB/By28KW9s2H79h9fGhvOFn9yUn2MjtrRPTE2oExpJuXyH/GT5hOg4d/HsvmMfkqC9bRLaWmtg+OV9xx4KTgLqgn4tlmvW+9oJu2iPFqykIde1WUOlHP2r1dZTeSH68gL4btF1bEf3AvhYUH48L2nqW36VmWZvvpJnmhnqhn4tlstMmJ1bu1TBCunO3pgO2vU72ueOSZYWufaZKePw1z4rV8OgNZ7UfGK5mrd35OQmo3ldU3pNSn7KtrRIuxz9zo++HZyN+uo/3SP3QLnN2YpBK6RdTpDTgn1AM7IWNdD9SJ/05KTPeuPHBd/3pUdb5RonV8AoX+bCPBAuzyeWW4fqtxRBE+pI/QkuuGoySyajnsha1EBbS1vP/n5v0i8WnPArwwf7kZEfv37oxKf39v/yE1/+1Be/dVx+yvaTJw7O7YKH6TapW4pgH3U0NDLo+d6CqyazZDLqiaxFbezZuffwR56VjfArwwc70VAeR1Ou5zxzHI0cDc4L3W1StxR0m+pPTe9ZcNVklkxGPZG1qBk1FCj8yvDRsaiXryG7TUJuKeg2ARBkLZAI+fJVPUwO2W0ScktBt6n+1CrIC66azJLJqCeyFjUWfmX46Aj58pVhq7FQqgxlmI5dbRlHUbSLlpWUk4N9QCeyFrUU5hon1GUu2FlpXsILP55LTg7ZbRJyS0G3qf5mTkILmiphyWTUE98z1FKYa5wcVZe5YH+lDY0Mhh/PJSeH7DYJuaWg27QiypPQfLfyExRplxPktGAf0IysRS2FucbJ0Uhd5i6/9mr48Vxycshuk7qloNu0TGqu82LrX5YnoVVZNZklk1FPXAhQS2GucQ2wMnz4W4pgH4unpjuruc7VpztXpCahGa4xNmzfuj7h3HTkIxv5K7a0SDtLJqOeyFrU2MxrnFzX1GVu5jUuasWQt23aHn48l3r/Gv6WImjCIpWnO6u5zktbNkC+imcOvdjVcf+Nq4Wxy7Z8ZGPqpict0h6cBNQFaw9AC+l89J/uuTA6GP2V4b2E94HP/4paOKEKuVeQy/TZ7pfKj4UlD9TaA5lcOpPLWGlT8rhoF4u2Iz1aCVp6TkujpjubKSM3z/IVTz/87KJ+bwdZvxYrjayFRhJjQyODcpmL+DXufYe72jtyVYYiyyVeOuXSHzp64HjQNC1GtxRxIb+lLNGDxkPWAgt3pLxGWQcw4uTmbOb6jPOZ+4wBiDi+qUD83jE3qpD1L1k2ALFD1gIl5XE00mFSQ2lmjqMhaOtDvVVl2QA0Hp4hA7eJyzvmhvTC+RNf/Nbx9nva0mtSQVMlzk1HboYef/DgR3cfCJqAaOM6AtxGwrVza5dcxOUnQVtnakoVywag8XApARAVIetfsmwAYoesBRAV6qECywag8fBlBRAhYepfRqqeNhAGWQsgQsLUv2TZAMQO45CBCryEd/L8V2SD0cgrolz/snVzVs3wmVn/8txvn1enAXFB1gK3yY9ff+Z079DoBcourixV/3Jg+OVgnz8IxBlZC7yj3J1qymWa72iWFrfoOrYzYRelO9Wzv3/Pzr3qTNQHywagMZC1QICqyAA0IWuBkjDLy1y7NGa4Bi8LASwWD2SA0kioh49+IJVNbrx3fcWgFdIuR5NZS04OmgAgHLIWCLu8jMjkMiwvA2CxyFog7PIywkqbLC8DYLHIWgAA9CJrgbDLywjX8VheBsBikbVA2OVlRNEusrwMgMUiawH5axBqeRk5WrQdyikAWCyuGkBJmOVl5KicE+wDQGhkLVASZnkZOdr76JGgCQBCo24U8I5yPeRMLt2ycboe8ozlZSRoKdAIYAnIWuA2anmZC6ODrPMDoFbIWqAC1q8FUENkLQAAenG3DgCAXmQtAAB6kbUAAOhF1gIAoBdZCwCAXmQtAAB6kbUAAOhF1gIAoBdZCwCAXmQtAAB6kbUAAOhF1gIAoBdZCwCAXmQtAAB6kbUAAOhF1gIAoBdZCwCAXmQtAAB6kbUAAOhF1gIAoBdZCwCAXmQtAAB6kbUAAOhF1gIAoJfh+36wCWjgJbzn//Q/vnHj9Q3ZDe+/d++uu3/J5A4PwCpD1kKX/Pj13lOf+cHoD2Z+xwzT+MXNu55+7Nm2lragCQAaHVkLLc5dPHv41Gc9+Xb5fuvmrJWxpNEtuo7tTNhF0zR79x/Zs3OvOhkAGhtZi9qToO09+VTCSFhJQ4I2nU0HB6Y5Bce+WvAm/e/2fi9oAoCGxpsz1Fh+PN93qtuYDtr1O9pnBa2Qlg072s2UIWcGTQDQ0Mha1Fj/6R7Xc/3pR8eGVfkLJu25zVk5M9gHgIZG1qKWvIQ3ODogG025zNwe7Uxy9MLooJwf7ANA4yJrUUtDI4OeW4rPdK5a0CquOyXnBzsA0LjIWtTS5ddeVRtq4PGCyucDQAMja1FL2zZtVxtu0VUb1ZXPB4AGRtailu7b2mlOj4dybEe1VGFZSTk/2AGAxkXWopbMhNm5pUs2JuyiU6gWt3J015ZO6jUCWA2oZYEay4/n9x17yPM9c3p+bcVpP77rXbs09vXf/OYyKzV6Ce/k+a/IxrZN20tdapIbQCSRtai9OtSNyo9ff+Z079DoBdedUi2WlZSOcvcjfVRaBhA1ZC20mF0POV3qcbqOV7SLRdsxTfMT//STazItS+uPyr+871S367lNuUzzHc3SUq60bJlWz/5+Ki0DiBSyFrrkx/M9Jz/zFz8ekrwNmuQLZxrZTPam85bnBgOVF9sfVZ1mM2XkqLQMICbIWug1c/3atrXrvvLn/1X1R9O5tJWxFtsfVS+DfcvfoPlNMADUEFmLOgnTH+177Ln3v+eBoLWSJ08cHBh+ub0jV6UApPzb7knsPHrgeLAPACuNcZuoB7X4jwSt9EfnxqS0qJV/Dn/ts1UW/ykVWx4ZoNIygNgha1EPavEf6dFWX/lHzqmy+E+p2LLvUWkZQOyQtdAufH80kyt1SYP9OVTxZCotA4gdshbahe+PZnKZ8nxZAGgYZC20C98fVdNw56MWKmBVAwCxQ9ZCu/AZ6TrVBjR1bu3q6rj/xtWCs1ClZTlNTg72AWClkbXQrlQZyjDDrPxTtIuWlQx2Kul+pM8yLftqwZ9ekX4uaZejclqwDwARQNZCu9LiP1u7wqz8U7RLi/8E+5W0tbT17O/3Jv1rl8bm/tukRdrlKIUsAEQKtSxQDyHrPRmucebQiwsmZbkeciaXbtk4XQ/57UrL0uvtffRI9YIYAFBnZC3qpCZ1o8okvPtP91wYHWSdHwDRR9aifmb2RzO5jJU2l9kfZf1aALFA1qKu6I8CWIXIWqwA6Y8OjQxefu1V+qMAVgOyFgAAvehPAACgF1kLAIBeZC0AAHqRtQAA6EXWAgCgF1kLAIBeZC0AAHqRtQAA6EXWAgCgF1kLAIBeZC0AAHqRtQAA6EXWAgCgF1kLAIBeZC0AAHqRtQAA6EXWAgCgF1kLAIBeZC0AADolEv8ftyHrV0wHvB0AAAAASUVORK5CYII=;" vertex="1" parent="1">
          <mxGeometry x="70" y="1420" width="400" height="328.6" as="geometry" />
        </mxCell>
        <mxCell id="Hre0k5CdGtxkCVLCbG9s-2" value="&lt;p class=&quot;MsoNormal&quot; style=&quot;font-size: 22px;&quot;&gt;Point data: unclassified&lt;/p&gt;" style="rounded=0;whiteSpace=wrap;html=1;fontFamily=Verdana;fontSize=22;" vertex="1" parent="1">
          <mxGeometry x="112" y="220" width="450" height="60" as="geometry" />
        </mxCell>
        <mxCell id="Hre0k5CdGtxkCVLCbG9s-223" style="edgeStyle=orthogonalEdgeStyle;rounded=0;orthogonalLoop=1;jettySize=auto;html=1;entryX=0;entryY=0.5;entryDx=0;entryDy=0;strokeWidth=5;" edge="1" parent="1" target="Hre0k5CdGtxkCVLCbG9s-189">
          <mxGeometry relative="1" as="geometry">
            <mxPoint x="560" y="460" as="sourcePoint" />
          </mxGeometry>
        </mxCell>
        <mxCell id="Hre0k5CdGtxkCVLCbG9s-8" value="Health Facilities" style="shape=table;startSize=30;container=1;collapsible=0;childLayout=tableLayout;fontFamily=Verdana;fontSize=18;fontStyle=1;labelBackgroundColor=none;labelBorderColor=none;" vertex="1" parent="1">
          <mxGeometry x="112" y="300" width="450" height="310" as="geometry" />
        </mxCell>
        <mxCell id="Hre0k5CdGtxkCVLCbG9s-9" value="" style="shape=tableRow;horizontal=0;startSize=0;swimlaneHead=0;swimlaneBody=0;strokeColor=inherit;top=0;left=0;bottom=0;right=0;collapsible=0;dropTarget=0;fillColor=none;points=[[0,0.5],[1,0.5]];portConstraint=eastwest;labelBackgroundColor=none;" vertex="1" parent="Hre0k5CdGtxkCVLCbG9s-8">
          <mxGeometry y="30" width="450" height="40" as="geometry" />
        </mxCell>
        <mxCell id="Hre0k5CdGtxkCVLCbG9s-10" value="Name" style="shape=partialRectangle;html=1;whiteSpace=wrap;connectable=0;strokeColor=inherit;overflow=hidden;fillColor=none;top=0;left=0;bottom=0;right=0;pointerEvents=1;fontStyle=1;fontFamily=Verdana;fontSize=14;labelBackgroundColor=none;" vertex="1" parent="Hre0k5CdGtxkCVLCbG9s-9">
          <mxGeometry width="114" height="40" as="geometry">
            <mxRectangle width="114" height="40" as="alternateBounds" />
          </mxGeometry>
        </mxCell>
        <mxCell id="Hre0k5CdGtxkCVLCbG9s-11" value="Typ" style="shape=partialRectangle;html=1;whiteSpace=wrap;connectable=0;strokeColor=inherit;overflow=hidden;fillColor=none;top=0;left=0;bottom=0;right=0;pointerEvents=1;fontStyle=1;fontFamily=Verdana;fontSize=14;labelBackgroundColor=none;" vertex="1" parent="Hre0k5CdGtxkCVLCbG9s-9">
          <mxGeometry x="114" width="111" height="40" as="geometry">
            <mxRectangle width="111" height="40" as="alternateBounds" />
          </mxGeometry>
        </mxCell>
        <mxCell id="Hre0k5CdGtxkCVLCbG9s-12" value="District" style="shape=partialRectangle;html=1;whiteSpace=wrap;connectable=0;strokeColor=inherit;overflow=hidden;fillColor=none;top=0;left=0;bottom=0;right=0;pointerEvents=1;fontStyle=1;fontFamily=Verdana;fontSize=14;labelBackgroundColor=none;" vertex="1" parent="Hre0k5CdGtxkCVLCbG9s-9">
          <mxGeometry x="225" width="111" height="40" as="geometry">
            <mxRectangle width="111" height="40" as="alternateBounds" />
          </mxGeometry>
        </mxCell>
        <mxCell id="Hre0k5CdGtxkCVLCbG9s-13" value="Number of beds" style="shape=partialRectangle;html=1;whiteSpace=wrap;connectable=0;strokeColor=inherit;overflow=hidden;fillColor=none;top=0;left=0;bottom=0;right=0;pointerEvents=1;fontStyle=1;fontFamily=Verdana;fontSize=14;labelBackgroundColor=none;" vertex="1" parent="Hre0k5CdGtxkCVLCbG9s-9">
          <mxGeometry x="336" width="114" height="40" as="geometry">
            <mxRectangle width="114" height="40" as="alternateBounds" />
          </mxGeometry>
        </mxCell>
        <mxCell id="Hre0k5CdGtxkCVLCbG9s-15" value="" style="shape=tableRow;horizontal=0;startSize=0;swimlaneHead=0;swimlaneBody=0;strokeColor=inherit;top=0;left=0;bottom=0;right=0;collapsible=0;dropTarget=0;fillColor=none;points=[[0,0.5],[1,0.5]];portConstraint=eastwest;fontFamily=Verdana;fontSize=14;labelBackgroundColor=none;" vertex="1" parent="Hre0k5CdGtxkCVLCbG9s-8">
          <mxGeometry y="70" width="450" height="40" as="geometry" />
        </mxCell>
        <mxCell id="Hre0k5CdGtxkCVLCbG9s-16" value="Mabell HEalth Center" style="shape=partialRectangle;html=1;whiteSpace=wrap;connectable=0;strokeColor=inherit;overflow=hidden;fillColor=none;top=0;left=0;bottom=0;right=0;pointerEvents=1;fontFamily=Verdana;fontSize=14;labelBackgroundColor=none;" vertex="1" parent="Hre0k5CdGtxkCVLCbG9s-15">
          <mxGeometry width="114" height="40" as="geometry">
            <mxRectangle width="114" height="40" as="alternateBounds" />
          </mxGeometry>
        </mxCell>
        <mxCell id="Hre0k5CdGtxkCVLCbG9s-17" value="Health Center" style="shape=partialRectangle;html=1;whiteSpace=wrap;connectable=0;strokeColor=inherit;overflow=hidden;fillColor=none;top=0;left=0;bottom=0;right=0;pointerEvents=1;fontFamily=Verdana;fontSize=14;labelBackgroundColor=none;" vertex="1" parent="Hre0k5CdGtxkCVLCbG9s-15">
          <mxGeometry x="114" width="111" height="40" as="geometry">
            <mxRectangle width="111" height="40" as="alternateBounds" />
          </mxGeometry>
        </mxCell>
        <mxCell id="Hre0k5CdGtxkCVLCbG9s-18" value="Central" style="shape=partialRectangle;html=1;whiteSpace=wrap;connectable=0;strokeColor=inherit;overflow=hidden;fillColor=none;top=0;left=0;bottom=0;right=0;pointerEvents=1;fontFamily=Verdana;fontSize=14;labelBackgroundColor=none;" vertex="1" parent="Hre0k5CdGtxkCVLCbG9s-15">
          <mxGeometry x="225" width="111" height="40" as="geometry">
            <mxRectangle width="111" height="40" as="alternateBounds" />
          </mxGeometry>
        </mxCell>
        <mxCell id="Hre0k5CdGtxkCVLCbG9s-19" value="2" style="shape=partialRectangle;html=1;whiteSpace=wrap;connectable=0;strokeColor=inherit;overflow=hidden;fillColor=none;top=0;left=0;bottom=0;right=0;pointerEvents=1;fontFamily=Verdana;fontSize=14;labelBackgroundColor=none;" vertex="1" parent="Hre0k5CdGtxkCVLCbG9s-15">
          <mxGeometry x="336" width="114" height="40" as="geometry">
            <mxRectangle width="114" height="40" as="alternateBounds" />
          </mxGeometry>
        </mxCell>
        <mxCell id="Hre0k5CdGtxkCVLCbG9s-21" value="" style="shape=tableRow;horizontal=0;startSize=0;swimlaneHead=0;swimlaneBody=0;strokeColor=inherit;top=0;left=0;bottom=0;right=0;collapsible=0;dropTarget=0;fillColor=none;points=[[0,0.5],[1,0.5]];portConstraint=eastwest;fontFamily=Verdana;fontSize=14;labelBackgroundColor=none;" vertex="1" parent="Hre0k5CdGtxkCVLCbG9s-8">
          <mxGeometry y="110" width="450" height="40" as="geometry" />
        </mxCell>
        <mxCell id="Hre0k5CdGtxkCVLCbG9s-22" value="John Thorpe Ebola Isolation Center" style="shape=partialRectangle;html=1;whiteSpace=wrap;connectable=0;strokeColor=inherit;overflow=hidden;fillColor=none;top=0;left=0;bottom=0;right=0;pointerEvents=1;fontFamily=Verdana;fontSize=14;labelBackgroundColor=none;" vertex="1" parent="Hre0k5CdGtxkCVLCbG9s-21">
          <mxGeometry width="114" height="40" as="geometry">
            <mxRectangle width="114" height="40" as="alternateBounds" />
          </mxGeometry>
        </mxCell>
        <mxCell id="Hre0k5CdGtxkCVLCbG9s-23" value="Isolation Center" style="shape=partialRectangle;html=1;whiteSpace=wrap;connectable=0;strokeColor=inherit;overflow=hidden;fillColor=none;top=0;left=0;bottom=0;right=0;pointerEvents=1;fontFamily=Verdana;fontSize=14;labelBackgroundColor=none;" vertex="1" parent="Hre0k5CdGtxkCVLCbG9s-21">
          <mxGeometry x="114" width="111" height="40" as="geometry">
            <mxRectangle width="111" height="40" as="alternateBounds" />
          </mxGeometry>
        </mxCell>
        <mxCell id="Hre0k5CdGtxkCVLCbG9s-24" value="West" style="shape=partialRectangle;html=1;whiteSpace=wrap;connectable=0;strokeColor=inherit;overflow=hidden;fillColor=none;top=0;left=0;bottom=0;right=0;pointerEvents=1;fontFamily=Verdana;fontSize=14;labelBackgroundColor=none;" vertex="1" parent="Hre0k5CdGtxkCVLCbG9s-21">
          <mxGeometry x="225" width="111" height="40" as="geometry">
            <mxRectangle width="111" height="40" as="alternateBounds" />
          </mxGeometry>
        </mxCell>
        <mxCell id="Hre0k5CdGtxkCVLCbG9s-25" value="17" style="shape=partialRectangle;html=1;whiteSpace=wrap;connectable=0;strokeColor=inherit;overflow=hidden;fillColor=none;top=0;left=0;bottom=0;right=0;pointerEvents=1;fontFamily=Verdana;fontSize=14;labelBackgroundColor=none;" vertex="1" parent="Hre0k5CdGtxkCVLCbG9s-21">
          <mxGeometry x="336" width="114" height="40" as="geometry">
            <mxRectangle width="114" height="40" as="alternateBounds" />
          </mxGeometry>
        </mxCell>
        <mxCell id="Hre0k5CdGtxkCVLCbG9s-27" value="" style="shape=tableRow;horizontal=0;startSize=0;swimlaneHead=0;swimlaneBody=0;strokeColor=inherit;top=0;left=0;bottom=0;right=0;collapsible=0;dropTarget=0;fillColor=none;points=[[0,0.5],[1,0.5]];portConstraint=eastwest;fontFamily=Verdana;fontSize=14;labelBackgroundColor=none;" vertex="1" parent="Hre0k5CdGtxkCVLCbG9s-8">
          <mxGeometry y="150" width="450" height="40" as="geometry" />
        </mxCell>
        <mxCell id="Hre0k5CdGtxkCVLCbG9s-28" value="A Bah Pharmacy" style="shape=partialRectangle;html=1;whiteSpace=wrap;connectable=0;strokeColor=inherit;overflow=hidden;fillColor=none;top=0;left=0;bottom=0;right=0;pointerEvents=1;fontFamily=Verdana;fontSize=14;labelBackgroundColor=none;" vertex="1" parent="Hre0k5CdGtxkCVLCbG9s-27">
          <mxGeometry width="114" height="40" as="geometry">
            <mxRectangle width="114" height="40" as="alternateBounds" />
          </mxGeometry>
        </mxCell>
        <mxCell id="Hre0k5CdGtxkCVLCbG9s-29" value="Pharmacy" style="shape=partialRectangle;html=1;whiteSpace=wrap;connectable=0;strokeColor=inherit;overflow=hidden;fillColor=none;top=0;left=0;bottom=0;right=0;pointerEvents=1;fontFamily=Verdana;fontSize=14;labelBackgroundColor=none;" vertex="1" parent="Hre0k5CdGtxkCVLCbG9s-27">
          <mxGeometry x="114" width="111" height="40" as="geometry">
            <mxRectangle width="111" height="40" as="alternateBounds" />
          </mxGeometry>
        </mxCell>
        <mxCell id="Hre0k5CdGtxkCVLCbG9s-30" value="South" style="shape=partialRectangle;html=1;whiteSpace=wrap;connectable=0;strokeColor=inherit;overflow=hidden;fillColor=none;top=0;left=0;bottom=0;right=0;pointerEvents=1;fontFamily=Verdana;fontSize=14;labelBackgroundColor=none;" vertex="1" parent="Hre0k5CdGtxkCVLCbG9s-27">
          <mxGeometry x="225" width="111" height="40" as="geometry">
            <mxRectangle width="111" height="40" as="alternateBounds" />
          </mxGeometry>
        </mxCell>
        <mxCell id="Hre0k5CdGtxkCVLCbG9s-31" value="0" style="shape=partialRectangle;html=1;whiteSpace=wrap;connectable=0;strokeColor=inherit;overflow=hidden;fillColor=none;top=0;left=0;bottom=0;right=0;pointerEvents=1;fontFamily=Verdana;fontSize=14;labelBackgroundColor=none;" vertex="1" parent="Hre0k5CdGtxkCVLCbG9s-27">
          <mxGeometry x="336" width="114" height="40" as="geometry">
            <mxRectangle width="114" height="40" as="alternateBounds" />
          </mxGeometry>
        </mxCell>
        <mxCell id="Hre0k5CdGtxkCVLCbG9s-33" value="" style="shape=tableRow;horizontal=0;startSize=0;swimlaneHead=0;swimlaneBody=0;strokeColor=inherit;top=0;left=0;bottom=0;right=0;collapsible=0;dropTarget=0;fillColor=none;points=[[0,0.5],[1,0.5]];portConstraint=eastwest;fontFamily=Verdana;fontSize=14;labelBackgroundColor=none;" vertex="1" parent="Hre0k5CdGtxkCVLCbG9s-8">
          <mxGeometry y="190" width="450" height="40" as="geometry" />
        </mxCell>
        <mxCell id="Hre0k5CdGtxkCVLCbG9s-34" value="Wilkinson Dental Clinic" style="shape=partialRectangle;html=1;whiteSpace=wrap;connectable=0;strokeColor=inherit;overflow=hidden;fillColor=none;top=0;left=0;bottom=0;right=0;pointerEvents=1;fontFamily=Verdana;fontSize=14;labelBackgroundColor=none;" vertex="1" parent="Hre0k5CdGtxkCVLCbG9s-33">
          <mxGeometry width="114" height="40" as="geometry">
            <mxRectangle width="114" height="40" as="alternateBounds" />
          </mxGeometry>
        </mxCell>
        <mxCell id="Hre0k5CdGtxkCVLCbG9s-35" value="Dentist" style="shape=partialRectangle;html=1;whiteSpace=wrap;connectable=0;strokeColor=inherit;overflow=hidden;fillColor=none;top=0;left=0;bottom=0;right=0;pointerEvents=1;fontFamily=Verdana;fontSize=14;labelBackgroundColor=none;" vertex="1" parent="Hre0k5CdGtxkCVLCbG9s-33">
          <mxGeometry x="114" width="111" height="40" as="geometry">
            <mxRectangle width="111" height="40" as="alternateBounds" />
          </mxGeometry>
        </mxCell>
        <mxCell id="Hre0k5CdGtxkCVLCbG9s-36" value="Central" style="shape=partialRectangle;html=1;whiteSpace=wrap;connectable=0;strokeColor=inherit;overflow=hidden;fillColor=none;top=0;left=0;bottom=0;right=0;pointerEvents=1;fontFamily=Verdana;fontSize=14;labelBackgroundColor=none;" vertex="1" parent="Hre0k5CdGtxkCVLCbG9s-33">
          <mxGeometry x="225" width="111" height="40" as="geometry">
            <mxRectangle width="111" height="40" as="alternateBounds" />
          </mxGeometry>
        </mxCell>
        <mxCell id="Hre0k5CdGtxkCVLCbG9s-37" value="0" style="shape=partialRectangle;html=1;whiteSpace=wrap;connectable=0;strokeColor=inherit;overflow=hidden;fillColor=none;top=0;left=0;bottom=0;right=0;pointerEvents=1;fontFamily=Verdana;fontSize=14;labelBackgroundColor=none;" vertex="1" parent="Hre0k5CdGtxkCVLCbG9s-33">
          <mxGeometry x="336" width="114" height="40" as="geometry">
            <mxRectangle width="114" height="40" as="alternateBounds" />
          </mxGeometry>
        </mxCell>
        <mxCell id="Hre0k5CdGtxkCVLCbG9s-44" style="shape=tableRow;horizontal=0;startSize=0;swimlaneHead=0;swimlaneBody=0;strokeColor=inherit;top=0;left=0;bottom=0;right=0;collapsible=0;dropTarget=0;fillColor=none;points=[[0,0.5],[1,0.5]];portConstraint=eastwest;fontFamily=Verdana;fontSize=14;labelBackgroundColor=none;" vertex="1" parent="Hre0k5CdGtxkCVLCbG9s-8">
          <mxGeometry y="230" width="450" height="40" as="geometry" />
        </mxCell>
        <mxCell id="Hre0k5CdGtxkCVLCbG9s-45" value="Giner Hall Community Hospital" style="shape=partialRectangle;html=1;whiteSpace=wrap;connectable=0;strokeColor=inherit;overflow=hidden;fillColor=none;top=0;left=0;bottom=0;right=0;pointerEvents=1;fontFamily=Verdana;fontSize=14;labelBackgroundColor=none;" vertex="1" parent="Hre0k5CdGtxkCVLCbG9s-44">
          <mxGeometry width="114" height="40" as="geometry">
            <mxRectangle width="114" height="40" as="alternateBounds" />
          </mxGeometry>
        </mxCell>
        <mxCell id="Hre0k5CdGtxkCVLCbG9s-46" value="Hospital" style="shape=partialRectangle;html=1;whiteSpace=wrap;connectable=0;strokeColor=inherit;overflow=hidden;fillColor=none;top=0;left=0;bottom=0;right=0;pointerEvents=1;fontFamily=Verdana;fontSize=14;labelBackgroundColor=none;" vertex="1" parent="Hre0k5CdGtxkCVLCbG9s-44">
          <mxGeometry x="114" width="111" height="40" as="geometry">
            <mxRectangle width="111" height="40" as="alternateBounds" />
          </mxGeometry>
        </mxCell>
        <mxCell id="Hre0k5CdGtxkCVLCbG9s-47" value="West" style="shape=partialRectangle;html=1;whiteSpace=wrap;connectable=0;strokeColor=inherit;overflow=hidden;fillColor=none;top=0;left=0;bottom=0;right=0;pointerEvents=1;fontFamily=Verdana;fontSize=14;labelBackgroundColor=none;" vertex="1" parent="Hre0k5CdGtxkCVLCbG9s-44">
          <mxGeometry x="225" width="111" height="40" as="geometry">
            <mxRectangle width="111" height="40" as="alternateBounds" />
          </mxGeometry>
        </mxCell>
        <mxCell id="Hre0k5CdGtxkCVLCbG9s-48" value="33" style="shape=partialRectangle;html=1;whiteSpace=wrap;connectable=0;strokeColor=inherit;overflow=hidden;fillColor=none;top=0;left=0;bottom=0;right=0;pointerEvents=1;fontFamily=Verdana;fontSize=14;labelBackgroundColor=none;" vertex="1" parent="Hre0k5CdGtxkCVLCbG9s-44">
          <mxGeometry x="336" width="114" height="40" as="geometry">
            <mxRectangle width="114" height="40" as="alternateBounds" />
          </mxGeometry>
        </mxCell>
        <mxCell id="Hre0k5CdGtxkCVLCbG9s-49" style="shape=tableRow;horizontal=0;startSize=0;swimlaneHead=0;swimlaneBody=0;strokeColor=inherit;top=0;left=0;bottom=0;right=0;collapsible=0;dropTarget=0;fillColor=none;points=[[0,0.5],[1,0.5]];portConstraint=eastwest;labelBackgroundColor=none;" vertex="1" parent="Hre0k5CdGtxkCVLCbG9s-8">
          <mxGeometry y="270" width="450" height="40" as="geometry" />
        </mxCell>
        <mxCell id="Hre0k5CdGtxkCVLCbG9s-50" value="Bonthe Governent Hospital" style="shape=partialRectangle;html=1;whiteSpace=wrap;connectable=0;strokeColor=inherit;overflow=hidden;fillColor=none;top=0;left=0;bottom=0;right=0;pointerEvents=1;labelBackgroundColor=none;" vertex="1" parent="Hre0k5CdGtxkCVLCbG9s-49">
          <mxGeometry width="114" height="40" as="geometry">
            <mxRectangle width="114" height="40" as="alternateBounds" />
          </mxGeometry>
        </mxCell>
        <mxCell id="Hre0k5CdGtxkCVLCbG9s-51" value="Clinic" style="shape=partialRectangle;html=1;whiteSpace=wrap;connectable=0;strokeColor=inherit;overflow=hidden;fillColor=none;top=0;left=0;bottom=0;right=0;pointerEvents=1;labelBackgroundColor=none;" vertex="1" parent="Hre0k5CdGtxkCVLCbG9s-49">
          <mxGeometry x="114" width="111" height="40" as="geometry">
            <mxRectangle width="111" height="40" as="alternateBounds" />
          </mxGeometry>
        </mxCell>
        <mxCell id="Hre0k5CdGtxkCVLCbG9s-52" value="South" style="shape=partialRectangle;html=1;whiteSpace=wrap;connectable=0;strokeColor=inherit;overflow=hidden;fillColor=none;top=0;left=0;bottom=0;right=0;pointerEvents=1;labelBackgroundColor=none;" vertex="1" parent="Hre0k5CdGtxkCVLCbG9s-49">
          <mxGeometry x="225" width="111" height="40" as="geometry">
            <mxRectangle width="111" height="40" as="alternateBounds" />
          </mxGeometry>
        </mxCell>
        <mxCell id="Hre0k5CdGtxkCVLCbG9s-53" value="256" style="shape=partialRectangle;html=1;whiteSpace=wrap;connectable=0;strokeColor=inherit;overflow=hidden;fillColor=none;top=0;left=0;bottom=0;right=0;pointerEvents=1;labelBackgroundColor=none;" vertex="1" parent="Hre0k5CdGtxkCVLCbG9s-49">
          <mxGeometry x="336" width="114" height="40" as="geometry">
            <mxRectangle width="114" height="40" as="alternateBounds" />
          </mxGeometry>
        </mxCell>
        <mxCell id="Hre0k5CdGtxkCVLCbG9s-54" value="" style="ellipse;whiteSpace=wrap;html=1;aspect=fixed;fillColor=#000000;" vertex="1" parent="1">
          <mxGeometry x="197" y="720" width="20" height="20" as="geometry" />
        </mxCell>
        <mxCell id="Hre0k5CdGtxkCVLCbG9s-55" value="" style="ellipse;whiteSpace=wrap;html=1;aspect=fixed;fillColor=#000000;" vertex="1" parent="1">
          <mxGeometry x="365" y="680" width="20" height="20" as="geometry" />
        </mxCell>
        <mxCell id="Hre0k5CdGtxkCVLCbG9s-56" value="" style="ellipse;whiteSpace=wrap;html=1;aspect=fixed;fillColor=#000000;" vertex="1" parent="1">
          <mxGeometry x="405" y="770" width="20" height="20" as="geometry" />
        </mxCell>
        <mxCell id="Hre0k5CdGtxkCVLCbG9s-61" value="" style="ellipse;whiteSpace=wrap;html=1;aspect=fixed;fillColor=#000000;" vertex="1" parent="1">
          <mxGeometry x="155" y="800" width="20" height="20" as="geometry" />
        </mxCell>
        <mxCell id="Hre0k5CdGtxkCVLCbG9s-62" value="" style="ellipse;whiteSpace=wrap;html=1;aspect=fixed;fillColor=#000000;" vertex="1" parent="1">
          <mxGeometry x="465" y="910" width="20" height="20" as="geometry" />
        </mxCell>
        <mxCell id="Hre0k5CdGtxkCVLCbG9s-63" value="" style="ellipse;whiteSpace=wrap;html=1;aspect=fixed;fillColor=#000000;" vertex="1" parent="1">
          <mxGeometry x="345" y="910" width="20" height="20" as="geometry" />
        </mxCell>
        <mxCell id="Hre0k5CdGtxkCVLCbG9s-107" value="&lt;p class=&quot;MsoNormal&quot; style=&quot;font-size: 22px;&quot;&gt;Point data: classified&lt;/p&gt;" style="rounded=0;whiteSpace=wrap;html=1;fontFamily=Verdana;fontSize=22;" vertex="1" parent="1">
          <mxGeometry x="1040" y="220" width="450" height="60" as="geometry" />
        </mxCell>
        <mxCell id="Hre0k5CdGtxkCVLCbG9s-108" value="Health Facilities" style="shape=table;startSize=30;container=1;collapsible=0;childLayout=tableLayout;fontFamily=Verdana;fontSize=16;fontStyle=1" vertex="1" parent="1">
          <mxGeometry x="1040" y="300" width="450" height="310" as="geometry" />
        </mxCell>
        <mxCell id="Hre0k5CdGtxkCVLCbG9s-109" value="" style="shape=tableRow;horizontal=0;startSize=0;swimlaneHead=0;swimlaneBody=0;strokeColor=inherit;top=0;left=0;bottom=0;right=0;collapsible=0;dropTarget=0;fillColor=none;points=[[0,0.5],[1,0.5]];portConstraint=eastwest;fontFamily=Verdana;fontSize=14;" vertex="1" parent="Hre0k5CdGtxkCVLCbG9s-108">
          <mxGeometry y="30" width="450" height="40" as="geometry" />
        </mxCell>
        <mxCell id="Hre0k5CdGtxkCVLCbG9s-110" value="Name" style="shape=partialRectangle;html=1;whiteSpace=wrap;connectable=0;strokeColor=default;overflow=hidden;fillColor=none;top=0;left=0;bottom=0;right=0;pointerEvents=1;fontFamily=Verdana;fontSize=14;strokeWidth=2;fontStyle=1" vertex="1" parent="Hre0k5CdGtxkCVLCbG9s-109">
          <mxGeometry width="114" height="40" as="geometry">
            <mxRectangle width="114" height="40" as="alternateBounds" />
          </mxGeometry>
        </mxCell>
        <mxCell id="Hre0k5CdGtxkCVLCbG9s-111" value="Typ" style="shape=partialRectangle;html=1;whiteSpace=wrap;connectable=0;strokeColor=default;overflow=hidden;fillColor=#f8cecc;top=0;left=0;bottom=0;right=0;pointerEvents=1;fontFamily=Verdana;fontSize=14;strokeWidth=2;fontStyle=1" vertex="1" parent="Hre0k5CdGtxkCVLCbG9s-109">
          <mxGeometry x="114" width="111" height="40" as="geometry">
            <mxRectangle width="111" height="40" as="alternateBounds" />
          </mxGeometry>
        </mxCell>
        <mxCell id="Hre0k5CdGtxkCVLCbG9s-112" value="District" style="shape=partialRectangle;html=1;whiteSpace=wrap;connectable=0;strokeColor=default;overflow=hidden;fillColor=none;top=0;left=0;bottom=0;right=0;pointerEvents=1;fontFamily=Verdana;fontSize=14;strokeWidth=2;fontStyle=1" vertex="1" parent="Hre0k5CdGtxkCVLCbG9s-109">
          <mxGeometry x="225" width="111" height="40" as="geometry">
            <mxRectangle width="111" height="40" as="alternateBounds" />
          </mxGeometry>
        </mxCell>
        <mxCell id="Hre0k5CdGtxkCVLCbG9s-113" value="Number of beds" style="shape=partialRectangle;html=1;whiteSpace=wrap;connectable=0;strokeColor=default;overflow=hidden;fillColor=none;top=0;left=0;bottom=0;right=0;pointerEvents=1;fontFamily=Verdana;fontSize=14;strokeWidth=2;fontStyle=1" vertex="1" parent="Hre0k5CdGtxkCVLCbG9s-109">
          <mxGeometry x="336" width="114" height="40" as="geometry">
            <mxRectangle width="114" height="40" as="alternateBounds" />
          </mxGeometry>
        </mxCell>
        <mxCell id="Hre0k5CdGtxkCVLCbG9s-114" value="" style="shape=tableRow;horizontal=0;startSize=0;swimlaneHead=0;swimlaneBody=0;strokeColor=inherit;top=0;left=0;bottom=0;right=0;collapsible=0;dropTarget=0;fillColor=none;points=[[0,0.5],[1,0.5]];portConstraint=eastwest;fontFamily=Verdana;fontSize=14;" vertex="1" parent="Hre0k5CdGtxkCVLCbG9s-108">
          <mxGeometry y="70" width="450" height="40" as="geometry" />
        </mxCell>
        <mxCell id="Hre0k5CdGtxkCVLCbG9s-115" value="Mabell HEalth Center" style="shape=partialRectangle;html=1;whiteSpace=wrap;connectable=0;strokeColor=inherit;overflow=hidden;fillColor=none;top=0;left=0;bottom=0;right=0;pointerEvents=1;fontFamily=Verdana;fontSize=14;" vertex="1" parent="Hre0k5CdGtxkCVLCbG9s-114">
          <mxGeometry width="114" height="40" as="geometry">
            <mxRectangle width="114" height="40" as="alternateBounds" />
          </mxGeometry>
        </mxCell>
        <mxCell id="Hre0k5CdGtxkCVLCbG9s-116" value="Clinic" style="shape=partialRectangle;html=1;whiteSpace=wrap;connectable=0;strokeColor=#b85450;overflow=hidden;fillColor=#f8cecc;top=0;left=0;bottom=0;right=0;pointerEvents=1;fontFamily=Verdana;fontSize=14;" vertex="1" parent="Hre0k5CdGtxkCVLCbG9s-114">
          <mxGeometry x="114" width="111" height="40" as="geometry">
            <mxRectangle width="111" height="40" as="alternateBounds" />
          </mxGeometry>
        </mxCell>
        <mxCell id="Hre0k5CdGtxkCVLCbG9s-117" value="Central" style="shape=partialRectangle;html=1;whiteSpace=wrap;connectable=0;strokeColor=inherit;overflow=hidden;fillColor=none;top=0;left=0;bottom=0;right=0;pointerEvents=1;fontFamily=Verdana;fontSize=14;" vertex="1" parent="Hre0k5CdGtxkCVLCbG9s-114">
          <mxGeometry x="225" width="111" height="40" as="geometry">
            <mxRectangle width="111" height="40" as="alternateBounds" />
          </mxGeometry>
        </mxCell>
        <mxCell id="Hre0k5CdGtxkCVLCbG9s-118" value="2" style="shape=partialRectangle;html=1;whiteSpace=wrap;connectable=0;strokeColor=inherit;overflow=hidden;fillColor=none;top=0;left=0;bottom=0;right=0;pointerEvents=1;fontFamily=Verdana;fontSize=14;" vertex="1" parent="Hre0k5CdGtxkCVLCbG9s-114">
          <mxGeometry x="336" width="114" height="40" as="geometry">
            <mxRectangle width="114" height="40" as="alternateBounds" />
          </mxGeometry>
        </mxCell>
        <mxCell id="Hre0k5CdGtxkCVLCbG9s-119" value="" style="shape=tableRow;horizontal=0;startSize=0;swimlaneHead=0;swimlaneBody=0;strokeColor=inherit;top=0;left=0;bottom=0;right=0;collapsible=0;dropTarget=0;fillColor=none;points=[[0,0.5],[1,0.5]];portConstraint=eastwest;fontFamily=Verdana;fontSize=14;" vertex="1" parent="Hre0k5CdGtxkCVLCbG9s-108">
          <mxGeometry y="110" width="450" height="40" as="geometry" />
        </mxCell>
        <mxCell id="Hre0k5CdGtxkCVLCbG9s-120" value="John Thorpe Ebola Isolation Center" style="shape=partialRectangle;html=1;whiteSpace=wrap;connectable=0;strokeColor=inherit;overflow=hidden;fillColor=none;top=0;left=0;bottom=0;right=0;pointerEvents=1;fontFamily=Verdana;fontSize=14;" vertex="1" parent="Hre0k5CdGtxkCVLCbG9s-119">
          <mxGeometry width="114" height="40" as="geometry">
            <mxRectangle width="114" height="40" as="alternateBounds" />
          </mxGeometry>
        </mxCell>
        <mxCell id="Hre0k5CdGtxkCVLCbG9s-121" value="Hospital" style="shape=partialRectangle;html=1;whiteSpace=wrap;connectable=0;strokeColor=#b85450;overflow=hidden;fillColor=#f8cecc;top=0;left=0;bottom=0;right=0;pointerEvents=1;fontFamily=Verdana;fontSize=14;" vertex="1" parent="Hre0k5CdGtxkCVLCbG9s-119">
          <mxGeometry x="114" width="111" height="40" as="geometry">
            <mxRectangle width="111" height="40" as="alternateBounds" />
          </mxGeometry>
        </mxCell>
        <mxCell id="Hre0k5CdGtxkCVLCbG9s-122" value="West" style="shape=partialRectangle;html=1;whiteSpace=wrap;connectable=0;strokeColor=inherit;overflow=hidden;fillColor=none;top=0;left=0;bottom=0;right=0;pointerEvents=1;fontFamily=Verdana;fontSize=14;" vertex="1" parent="Hre0k5CdGtxkCVLCbG9s-119">
          <mxGeometry x="225" width="111" height="40" as="geometry">
            <mxRectangle width="111" height="40" as="alternateBounds" />
          </mxGeometry>
        </mxCell>
        <mxCell id="Hre0k5CdGtxkCVLCbG9s-123" value="17" style="shape=partialRectangle;html=1;whiteSpace=wrap;connectable=0;strokeColor=inherit;overflow=hidden;fillColor=none;top=0;left=0;bottom=0;right=0;pointerEvents=1;fontFamily=Verdana;fontSize=14;" vertex="1" parent="Hre0k5CdGtxkCVLCbG9s-119">
          <mxGeometry x="336" width="114" height="40" as="geometry">
            <mxRectangle width="114" height="40" as="alternateBounds" />
          </mxGeometry>
        </mxCell>
        <mxCell id="Hre0k5CdGtxkCVLCbG9s-124" value="" style="shape=tableRow;horizontal=0;startSize=0;swimlaneHead=0;swimlaneBody=0;strokeColor=inherit;top=0;left=0;bottom=0;right=0;collapsible=0;dropTarget=0;fillColor=none;points=[[0,0.5],[1,0.5]];portConstraint=eastwest;fontFamily=Verdana;fontSize=14;" vertex="1" parent="Hre0k5CdGtxkCVLCbG9s-108">
          <mxGeometry y="150" width="450" height="40" as="geometry" />
        </mxCell>
        <mxCell id="Hre0k5CdGtxkCVLCbG9s-125" value="A Bah Pharmacy" style="shape=partialRectangle;html=1;whiteSpace=wrap;connectable=0;strokeColor=inherit;overflow=hidden;fillColor=none;top=0;left=0;bottom=0;right=0;pointerEvents=1;fontFamily=Verdana;fontSize=14;" vertex="1" parent="Hre0k5CdGtxkCVLCbG9s-124">
          <mxGeometry width="114" height="40" as="geometry">
            <mxRectangle width="114" height="40" as="alternateBounds" />
          </mxGeometry>
        </mxCell>
        <mxCell id="Hre0k5CdGtxkCVLCbG9s-126" value="Pharmacy" style="shape=partialRectangle;html=1;whiteSpace=wrap;connectable=0;strokeColor=#b85450;overflow=hidden;fillColor=#f8cecc;top=0;left=0;bottom=0;right=0;pointerEvents=1;fontFamily=Verdana;fontSize=14;" vertex="1" parent="Hre0k5CdGtxkCVLCbG9s-124">
          <mxGeometry x="114" width="111" height="40" as="geometry">
            <mxRectangle width="111" height="40" as="alternateBounds" />
          </mxGeometry>
        </mxCell>
        <mxCell id="Hre0k5CdGtxkCVLCbG9s-127" value="South" style="shape=partialRectangle;html=1;whiteSpace=wrap;connectable=0;strokeColor=inherit;overflow=hidden;fillColor=none;top=0;left=0;bottom=0;right=0;pointerEvents=1;fontFamily=Verdana;fontSize=14;" vertex="1" parent="Hre0k5CdGtxkCVLCbG9s-124">
          <mxGeometry x="225" width="111" height="40" as="geometry">
            <mxRectangle width="111" height="40" as="alternateBounds" />
          </mxGeometry>
        </mxCell>
        <mxCell id="Hre0k5CdGtxkCVLCbG9s-128" value="0" style="shape=partialRectangle;html=1;whiteSpace=wrap;connectable=0;strokeColor=inherit;overflow=hidden;fillColor=none;top=0;left=0;bottom=0;right=0;pointerEvents=1;fontFamily=Verdana;fontSize=14;" vertex="1" parent="Hre0k5CdGtxkCVLCbG9s-124">
          <mxGeometry x="336" width="114" height="40" as="geometry">
            <mxRectangle width="114" height="40" as="alternateBounds" />
          </mxGeometry>
        </mxCell>
        <mxCell id="Hre0k5CdGtxkCVLCbG9s-129" value="" style="shape=tableRow;horizontal=0;startSize=0;swimlaneHead=0;swimlaneBody=0;strokeColor=inherit;top=0;left=0;bottom=0;right=0;collapsible=0;dropTarget=0;fillColor=none;points=[[0,0.5],[1,0.5]];portConstraint=eastwest;fontFamily=Verdana;fontSize=14;" vertex="1" parent="Hre0k5CdGtxkCVLCbG9s-108">
          <mxGeometry y="190" width="450" height="40" as="geometry" />
        </mxCell>
        <mxCell id="Hre0k5CdGtxkCVLCbG9s-130" value="Wilkinson Dental Clinic" style="shape=partialRectangle;html=1;whiteSpace=wrap;connectable=0;strokeColor=inherit;overflow=hidden;fillColor=none;top=0;left=0;bottom=0;right=0;pointerEvents=1;fontFamily=Verdana;fontSize=14;" vertex="1" parent="Hre0k5CdGtxkCVLCbG9s-129">
          <mxGeometry width="114" height="40" as="geometry">
            <mxRectangle width="114" height="40" as="alternateBounds" />
          </mxGeometry>
        </mxCell>
        <mxCell id="Hre0k5CdGtxkCVLCbG9s-131" value="Dentist" style="shape=partialRectangle;html=1;whiteSpace=wrap;connectable=0;strokeColor=#b85450;overflow=hidden;fillColor=#f8cecc;top=0;left=0;bottom=0;right=0;pointerEvents=1;fontFamily=Verdana;fontSize=14;" vertex="1" parent="Hre0k5CdGtxkCVLCbG9s-129">
          <mxGeometry x="114" width="111" height="40" as="geometry">
            <mxRectangle width="111" height="40" as="alternateBounds" />
          </mxGeometry>
        </mxCell>
        <mxCell id="Hre0k5CdGtxkCVLCbG9s-132" value="Central" style="shape=partialRectangle;html=1;whiteSpace=wrap;connectable=0;strokeColor=inherit;overflow=hidden;fillColor=none;top=0;left=0;bottom=0;right=0;pointerEvents=1;fontFamily=Verdana;fontSize=14;" vertex="1" parent="Hre0k5CdGtxkCVLCbG9s-129">
          <mxGeometry x="225" width="111" height="40" as="geometry">
            <mxRectangle width="111" height="40" as="alternateBounds" />
          </mxGeometry>
        </mxCell>
        <mxCell id="Hre0k5CdGtxkCVLCbG9s-133" value="0" style="shape=partialRectangle;html=1;whiteSpace=wrap;connectable=0;strokeColor=inherit;overflow=hidden;fillColor=none;top=0;left=0;bottom=0;right=0;pointerEvents=1;fontFamily=Verdana;fontSize=14;" vertex="1" parent="Hre0k5CdGtxkCVLCbG9s-129">
          <mxGeometry x="336" width="114" height="40" as="geometry">
            <mxRectangle width="114" height="40" as="alternateBounds" />
          </mxGeometry>
        </mxCell>
        <mxCell id="Hre0k5CdGtxkCVLCbG9s-134" style="shape=tableRow;horizontal=0;startSize=0;swimlaneHead=0;swimlaneBody=0;strokeColor=inherit;top=0;left=0;bottom=0;right=0;collapsible=0;dropTarget=0;fillColor=none;points=[[0,0.5],[1,0.5]];portConstraint=eastwest;fontFamily=Verdana;fontSize=14;" vertex="1" parent="Hre0k5CdGtxkCVLCbG9s-108">
          <mxGeometry y="230" width="450" height="40" as="geometry" />
        </mxCell>
        <mxCell id="Hre0k5CdGtxkCVLCbG9s-135" value="Giner Hall Community Hospital" style="shape=partialRectangle;html=1;whiteSpace=wrap;connectable=0;strokeColor=inherit;overflow=hidden;fillColor=none;top=0;left=0;bottom=0;right=0;pointerEvents=1;fontFamily=Verdana;fontSize=14;" vertex="1" parent="Hre0k5CdGtxkCVLCbG9s-134">
          <mxGeometry width="114" height="40" as="geometry">
            <mxRectangle width="114" height="40" as="alternateBounds" />
          </mxGeometry>
        </mxCell>
        <mxCell id="Hre0k5CdGtxkCVLCbG9s-136" value="Clinic" style="shape=partialRectangle;html=1;whiteSpace=wrap;connectable=0;strokeColor=#b85450;overflow=hidden;fillColor=#f8cecc;top=0;left=0;bottom=0;right=0;pointerEvents=1;fontFamily=Verdana;fontSize=14;" vertex="1" parent="Hre0k5CdGtxkCVLCbG9s-134">
          <mxGeometry x="114" width="111" height="40" as="geometry">
            <mxRectangle width="111" height="40" as="alternateBounds" />
          </mxGeometry>
        </mxCell>
        <mxCell id="Hre0k5CdGtxkCVLCbG9s-137" value="West" style="shape=partialRectangle;html=1;whiteSpace=wrap;connectable=0;strokeColor=inherit;overflow=hidden;fillColor=none;top=0;left=0;bottom=0;right=0;pointerEvents=1;fontFamily=Verdana;fontSize=14;" vertex="1" parent="Hre0k5CdGtxkCVLCbG9s-134">
          <mxGeometry x="225" width="111" height="40" as="geometry">
            <mxRectangle width="111" height="40" as="alternateBounds" />
          </mxGeometry>
        </mxCell>
        <mxCell id="Hre0k5CdGtxkCVLCbG9s-138" value="33" style="shape=partialRectangle;html=1;whiteSpace=wrap;connectable=0;strokeColor=inherit;overflow=hidden;fillColor=none;top=0;left=0;bottom=0;right=0;pointerEvents=1;fontFamily=Verdana;fontSize=14;" vertex="1" parent="Hre0k5CdGtxkCVLCbG9s-134">
          <mxGeometry x="336" width="114" height="40" as="geometry">
            <mxRectangle width="114" height="40" as="alternateBounds" />
          </mxGeometry>
        </mxCell>
        <mxCell id="Hre0k5CdGtxkCVLCbG9s-139" style="shape=tableRow;horizontal=0;startSize=0;swimlaneHead=0;swimlaneBody=0;strokeColor=inherit;top=0;left=0;bottom=0;right=0;collapsible=0;dropTarget=0;fillColor=none;points=[[0,0.5],[1,0.5]];portConstraint=eastwest;fontFamily=Verdana;fontSize=14;" vertex="1" parent="Hre0k5CdGtxkCVLCbG9s-108">
          <mxGeometry y="270" width="450" height="40" as="geometry" />
        </mxCell>
        <mxCell id="Hre0k5CdGtxkCVLCbG9s-140" value="Bonthe Governent Hospital" style="shape=partialRectangle;html=1;whiteSpace=wrap;connectable=0;strokeColor=inherit;overflow=hidden;fillColor=none;top=0;left=0;bottom=0;right=0;pointerEvents=1;fontFamily=Verdana;fontSize=14;" vertex="1" parent="Hre0k5CdGtxkCVLCbG9s-139">
          <mxGeometry width="114" height="40" as="geometry">
            <mxRectangle width="114" height="40" as="alternateBounds" />
          </mxGeometry>
        </mxCell>
        <mxCell id="Hre0k5CdGtxkCVLCbG9s-141" value="Hospital" style="shape=partialRectangle;html=1;whiteSpace=wrap;connectable=0;strokeColor=#b85450;overflow=hidden;fillColor=#f8cecc;top=0;left=0;bottom=0;right=0;pointerEvents=1;fontFamily=Verdana;fontSize=14;" vertex="1" parent="Hre0k5CdGtxkCVLCbG9s-139">
          <mxGeometry x="114" width="111" height="40" as="geometry">
            <mxRectangle width="111" height="40" as="alternateBounds" />
          </mxGeometry>
        </mxCell>
        <mxCell id="Hre0k5CdGtxkCVLCbG9s-142" value="South" style="shape=partialRectangle;html=1;whiteSpace=wrap;connectable=0;strokeColor=inherit;overflow=hidden;fillColor=none;top=0;left=0;bottom=0;right=0;pointerEvents=1;fontFamily=Verdana;fontSize=14;" vertex="1" parent="Hre0k5CdGtxkCVLCbG9s-139">
          <mxGeometry x="225" width="111" height="40" as="geometry">
            <mxRectangle width="111" height="40" as="alternateBounds" />
          </mxGeometry>
        </mxCell>
        <mxCell id="Hre0k5CdGtxkCVLCbG9s-143" value="256" style="shape=partialRectangle;html=1;whiteSpace=wrap;connectable=0;strokeColor=inherit;overflow=hidden;fillColor=none;top=0;left=0;bottom=0;right=0;pointerEvents=1;fontFamily=Verdana;fontSize=14;" vertex="1" parent="Hre0k5CdGtxkCVLCbG9s-139">
          <mxGeometry x="336" width="114" height="40" as="geometry">
            <mxRectangle width="114" height="40" as="alternateBounds" />
          </mxGeometry>
        </mxCell>
        <mxCell id="Hre0k5CdGtxkCVLCbG9s-182" value="" style="shape=table;startSize=0;container=1;collapsible=0;childLayout=tableLayout;fontFamily=Verdana;fontSize=14;" vertex="1" parent="1">
          <mxGeometry x="670" y="360" width="250" height="160" as="geometry" />
        </mxCell>
        <mxCell id="Hre0k5CdGtxkCVLCbG9s-183" value="" style="shape=tableRow;horizontal=0;startSize=0;swimlaneHead=0;swimlaneBody=0;strokeColor=inherit;top=0;left=0;bottom=0;right=0;collapsible=0;dropTarget=0;fillColor=none;points=[[0,0.5],[1,0.5]];portConstraint=eastwest;fontFamily=Verdana;fontSize=14;" vertex="1" parent="Hre0k5CdGtxkCVLCbG9s-182">
          <mxGeometry width="250" height="40" as="geometry" />
        </mxCell>
        <mxCell id="Hre0k5CdGtxkCVLCbG9s-184" value="Clinic" style="shape=partialRectangle;html=1;whiteSpace=wrap;connectable=0;strokeColor=inherit;overflow=hidden;fillColor=none;top=0;left=0;bottom=0;right=0;pointerEvents=1;fontFamily=Verdana;fontSize=14;" vertex="1" parent="Hre0k5CdGtxkCVLCbG9s-183">
          <mxGeometry width="125" height="40" as="geometry">
            <mxRectangle width="125" height="40" as="alternateBounds" />
          </mxGeometry>
        </mxCell>
        <mxCell id="Hre0k5CdGtxkCVLCbG9s-185" value="" style="shape=partialRectangle;html=1;whiteSpace=wrap;connectable=0;strokeColor=inherit;overflow=hidden;fillColor=none;top=0;left=0;bottom=0;right=0;pointerEvents=1;fontFamily=Verdana;fontSize=14;" vertex="1" parent="Hre0k5CdGtxkCVLCbG9s-183">
          <mxGeometry x="125" width="125" height="40" as="geometry">
            <mxRectangle width="125" height="40" as="alternateBounds" />
          </mxGeometry>
        </mxCell>
        <mxCell id="Hre0k5CdGtxkCVLCbG9s-186" value="" style="shape=tableRow;horizontal=0;startSize=0;swimlaneHead=0;swimlaneBody=0;strokeColor=inherit;top=0;left=0;bottom=0;right=0;collapsible=0;dropTarget=0;fillColor=none;points=[[0,0.5],[1,0.5]];portConstraint=eastwest;fontFamily=Verdana;fontSize=14;" vertex="1" parent="Hre0k5CdGtxkCVLCbG9s-182">
          <mxGeometry y="40" width="250" height="40" as="geometry" />
        </mxCell>
        <mxCell id="Hre0k5CdGtxkCVLCbG9s-187" value="Dentist" style="shape=partialRectangle;html=1;whiteSpace=wrap;connectable=0;strokeColor=inherit;overflow=hidden;fillColor=none;top=0;left=0;bottom=0;right=0;pointerEvents=1;fontFamily=Verdana;fontSize=14;" vertex="1" parent="Hre0k5CdGtxkCVLCbG9s-186">
          <mxGeometry width="125" height="40" as="geometry">
            <mxRectangle width="125" height="40" as="alternateBounds" />
          </mxGeometry>
        </mxCell>
        <mxCell id="Hre0k5CdGtxkCVLCbG9s-188" value="" style="shape=partialRectangle;html=1;whiteSpace=wrap;connectable=0;strokeColor=inherit;overflow=hidden;fillColor=none;top=0;left=0;bottom=0;right=0;pointerEvents=1;fontFamily=Verdana;fontSize=14;" vertex="1" parent="Hre0k5CdGtxkCVLCbG9s-186">
          <mxGeometry x="125" width="125" height="40" as="geometry">
            <mxRectangle width="125" height="40" as="alternateBounds" />
          </mxGeometry>
        </mxCell>
        <mxCell id="Hre0k5CdGtxkCVLCbG9s-189" value="" style="shape=tableRow;horizontal=0;startSize=0;swimlaneHead=0;swimlaneBody=0;strokeColor=inherit;top=0;left=0;bottom=0;right=0;collapsible=0;dropTarget=0;fillColor=none;points=[[0,0.5],[1,0.5]];portConstraint=eastwest;fontFamily=Verdana;fontSize=14;" vertex="1" parent="Hre0k5CdGtxkCVLCbG9s-182">
          <mxGeometry y="80" width="250" height="40" as="geometry" />
        </mxCell>
        <mxCell id="Hre0k5CdGtxkCVLCbG9s-190" value="Pharmacy" style="shape=partialRectangle;html=1;whiteSpace=wrap;connectable=0;strokeColor=inherit;overflow=hidden;fillColor=none;top=0;left=0;bottom=0;right=0;pointerEvents=1;fontFamily=Verdana;fontSize=14;" vertex="1" parent="Hre0k5CdGtxkCVLCbG9s-189">
          <mxGeometry width="125" height="40" as="geometry">
            <mxRectangle width="125" height="40" as="alternateBounds" />
          </mxGeometry>
        </mxCell>
        <mxCell id="Hre0k5CdGtxkCVLCbG9s-191" value="" style="shape=partialRectangle;html=1;whiteSpace=wrap;connectable=0;strokeColor=inherit;overflow=hidden;fillColor=none;top=0;left=0;bottom=0;right=0;pointerEvents=1;fontFamily=Verdana;fontSize=14;" vertex="1" parent="Hre0k5CdGtxkCVLCbG9s-189">
          <mxGeometry x="125" width="125" height="40" as="geometry">
            <mxRectangle width="125" height="40" as="alternateBounds" />
          </mxGeometry>
        </mxCell>
        <mxCell id="Hre0k5CdGtxkCVLCbG9s-192" value="" style="shape=tableRow;horizontal=0;startSize=0;swimlaneHead=0;swimlaneBody=0;strokeColor=inherit;top=0;left=0;bottom=0;right=0;collapsible=0;dropTarget=0;fillColor=none;points=[[0,0.5],[1,0.5]];portConstraint=eastwest;fontFamily=Verdana;fontSize=14;" vertex="1" parent="Hre0k5CdGtxkCVLCbG9s-182">
          <mxGeometry y="120" width="250" height="40" as="geometry" />
        </mxCell>
        <mxCell id="Hre0k5CdGtxkCVLCbG9s-193" value="Hospital" style="shape=partialRectangle;html=1;whiteSpace=wrap;connectable=0;strokeColor=inherit;overflow=hidden;fillColor=none;top=0;left=0;bottom=0;right=0;pointerEvents=1;fontFamily=Verdana;fontSize=14;" vertex="1" parent="Hre0k5CdGtxkCVLCbG9s-192">
          <mxGeometry width="125" height="40" as="geometry">
            <mxRectangle width="125" height="40" as="alternateBounds" />
          </mxGeometry>
        </mxCell>
        <mxCell id="Hre0k5CdGtxkCVLCbG9s-194" value="" style="shape=partialRectangle;html=1;whiteSpace=wrap;connectable=0;strokeColor=inherit;overflow=hidden;fillColor=none;top=0;left=0;bottom=0;right=0;pointerEvents=1;fontFamily=Verdana;fontSize=14;" vertex="1" parent="Hre0k5CdGtxkCVLCbG9s-192">
          <mxGeometry x="125" width="125" height="40" as="geometry">
            <mxRectangle width="125" height="40" as="alternateBounds" />
          </mxGeometry>
        </mxCell>
        <mxCell id="Hre0k5CdGtxkCVLCbG9s-195" value="" style="shape=mxgraph.signs.healthcare.first_aid;html=1;pointerEvents=1;fillColor=#F5333F;strokeColor=none;verticalLabelPosition=bottom;verticalAlign=top;align=center;fontFamily=Verdana;fontSize=14;" vertex="1" parent="1">
          <mxGeometry x="850" y="365" width="30" height="30" as="geometry" />
        </mxCell>
        <mxCell id="Hre0k5CdGtxkCVLCbG9s-196" value="" style="shape=mxgraph.signs.healthcare.hospital_1;html=1;pointerEvents=1;fillColor=#FF0000;strokeColor=none;verticalLabelPosition=bottom;verticalAlign=top;align=center;fontFamily=Verdana;fontSize=14;" vertex="1" parent="1">
          <mxGeometry x="850" y="485" width="30" height="30" as="geometry" />
        </mxCell>
        <mxCell id="Hre0k5CdGtxkCVLCbG9s-198" value="" style="shape=image;html=1;verticalAlign=top;verticalLabelPosition=bottom;labelBackgroundColor=#ffffff;imageAspect=0;aspect=fixed;image=https://cdn0.iconfinder.com/data/icons/medic-outline/32/Medical_Pill-128.png;fontFamily=Verdana;fontSize=14;" vertex="1" parent="1">
          <mxGeometry x="850" y="445" width="30" height="30" as="geometry" />
        </mxCell>
        <mxCell id="Hre0k5CdGtxkCVLCbG9s-199" value="" style="shape=image;html=1;verticalAlign=top;verticalLabelPosition=bottom;labelBackgroundColor=#ffffff;imageAspect=0;aspect=fixed;image=https://cdn3.iconfinder.com/data/icons/clinical-3/96/dental-128.png;fontFamily=Verdana;fontSize=14;" vertex="1" parent="1">
          <mxGeometry x="850" y="405" width="30" height="30" as="geometry" />
        </mxCell>
        <mxCell id="Hre0k5CdGtxkCVLCbG9s-200" value="" style="shape=image;html=1;verticalAlign=top;verticalLabelPosition=bottom;labelBackgroundColor=#ffffff;imageAspect=0;aspect=fixed;image=https://cdn3.iconfinder.com/data/icons/clinical-3/96/dental-128.png" vertex="1" parent="1">
          <mxGeometry x="1333" y="770" width="30" height="30" as="geometry" />
        </mxCell>
        <mxCell id="Hre0k5CdGtxkCVLCbG9s-202" value="" style="shape=mxgraph.signs.healthcare.first_aid;html=1;pointerEvents=1;fillColor=#F5333F;strokeColor=none;verticalLabelPosition=bottom;verticalAlign=top;align=center;" vertex="1" parent="1">
          <mxGeometry x="1293" y="680" width="30" height="30" as="geometry" />
        </mxCell>
        <mxCell id="Hre0k5CdGtxkCVLCbG9s-203" value="" style="shape=image;html=1;verticalAlign=top;verticalLabelPosition=bottom;labelBackgroundColor=#ffffff;imageAspect=0;aspect=fixed;image=https://cdn0.iconfinder.com/data/icons/medic-outline/32/Medical_Pill-128.png" vertex="1" parent="1">
          <mxGeometry x="1273" y="910" width="30" height="30" as="geometry" />
        </mxCell>
        <mxCell id="Hre0k5CdGtxkCVLCbG9s-204" value="" style="shape=mxgraph.signs.healthcare.hospital_1;html=1;pointerEvents=1;fillColor=#FF0000;strokeColor=none;verticalLabelPosition=bottom;verticalAlign=top;align=center;" vertex="1" parent="1">
          <mxGeometry x="1393" y="910" width="30" height="30" as="geometry" />
        </mxCell>
        <mxCell id="Hre0k5CdGtxkCVLCbG9s-205" value="" style="shape=mxgraph.signs.healthcare.hospital_1;html=1;pointerEvents=1;fillColor=#FF0000;strokeColor=none;verticalLabelPosition=bottom;verticalAlign=top;align=center;" vertex="1" parent="1">
          <mxGeometry x="1083" y="800" width="30" height="30" as="geometry" />
        </mxCell>
        <mxCell id="Hre0k5CdGtxkCVLCbG9s-206" value="" style="shape=mxgraph.signs.healthcare.first_aid;html=1;pointerEvents=1;fillColor=#F5333F;strokeColor=none;verticalLabelPosition=bottom;verticalAlign=top;align=center;" vertex="1" parent="1">
          <mxGeometry x="1125" y="720" width="30" height="30" as="geometry" />
        </mxCell>
        <mxCell id="Hre0k5CdGtxkCVLCbG9s-207" value="Map" style="rounded=0;whiteSpace=wrap;html=1;fontFamily=Verdana;fontSize=20;" vertex="1" parent="1">
          <mxGeometry x="207" y="620" width="260" height="40" as="geometry" />
        </mxCell>
        <mxCell id="Hre0k5CdGtxkCVLCbG9s-208" value="Map" style="rounded=0;whiteSpace=wrap;html=1;fontFamily=Verdana;fontSize=20;" vertex="1" parent="1">
          <mxGeometry x="1135" y="620" width="260" height="40" as="geometry" />
        </mxCell>
        <mxCell id="Hre0k5CdGtxkCVLCbG9s-221" value="Classification based on column:&amp;nbsp;&lt;b style=&quot;border-color: var(--border-color); font-size: 20px;&quot;&gt;Typ&lt;/b&gt;" style="rounded=0;whiteSpace=wrap;html=1;fontFamily=Verdana;fontSize=20;" vertex="1" parent="1">
          <mxGeometry x="670" y="300" width="250" height="60" as="geometry" />
        </mxCell>
        <mxCell id="Hre0k5CdGtxkCVLCbG9s-224" style="edgeStyle=orthogonalEdgeStyle;rounded=0;orthogonalLoop=1;jettySize=auto;html=1;entryX=0;entryY=0.239;entryDx=0;entryDy=0;entryPerimeter=0;strokeWidth=5;" edge="1" parent="1" source="Hre0k5CdGtxkCVLCbG9s-189" target="Hre0k5CdGtxkCVLCbG9s-124">
          <mxGeometry relative="1" as="geometry" />
        </mxCell>
      </root>
    </mxGraphModel>
  </diagram>
</mxfile>
